<svg xmlns="http://www.w3.org/2000/svg" viewBox="0 0 500 500"><g id="Floor"><path id="Floor-2" d="M107.45,285.96c-78.73,45.45-78.73,119.15,0,164.6,78.73,45.45,206.37,45.45,285.1,0,78.73-45.45,78.73-119.15,0-164.6-78.73-45.45-206.37-45.45-285.1,0Z" style="fill:#fafafa;"></path></g><g id="World_Icon"><g id="Icon"><path id="Online_icon" d="M112.98,71.94c-9.31-5.38-21.16-4.48-33.34,2.55-27.1,15.64-49.14,57.69-49.14,93.74,0,19.33,6.4,34.11,17.56,40.56,4.02,2.32,8.5,3.47,13.27,3.47,6.31,0,13.14-2.02,20.07-6.02,27.1-15.65,49.14-57.7,49.14-93.74,0-19.33-6.4-34.11-17.57-40.56ZM34.14,165.1c.63-17.85,6.56-36.89,15.72-53.14,2.18,1.04,4.48,1.77,6.89,2.17-5.36,14.25-8.43,29.13-8.58,42.88l-14.02,8.1Zm48.14-23.72l26.98-15.58c-.42,13.05-3.49,27.04-8.63,40.44-5.77-.19-11.99,1.36-18.35,4.58v-29.44Zm0-4.07v-29.34c6.75-4.05,13.33-9.85,19.38-16.97,4.78,7.6,7.52,18.13,7.66,30.7l-27.04,15.61Zm0-33.51v-25.83c6.92,.86,12.81,4.36,17.3,10.07-5.42,6.5-11.28,11.84-17.3,15.76Zm-3.53,2.14c-5.9,3.26-11.65,4.92-16.97,5.01,4.45-10.72,10.2-20.96,16.97-29.89v24.88Zm-18.38,8.56c.32,.01,.63,.06,.95,.06,5.51,0,11.41-1.63,17.42-4.67v29.47l-27.01,15.59c.43-13.05,3.49-27.04,8.63-40.44Zm18.38,28.92v29.34c-6.75,4.06-13.35,9.86-19.4,16.99-4.79-7.6-7.52-18.13-7.66-30.7l27.07-15.63Zm0,33.51v25.85c-6.93-.85-12.83-4.36-17.32-10.06,5.42-6.51,11.3-11.85,17.32-15.79Zm3.53-2.14c5.9-3.26,11.64-4.92,16.95-5.01-4.44,10.71-10.19,20.94-16.95,29.87v-24.86Zm30.57-51.05l14.05-8.11c-.63,17.85-6.57,36.9-15.73,53.16-2.19-1.04-4.49-1.77-6.9-2.17,5.36-14.25,8.43-29.13,8.58-42.87Zm14.13-12.23l-14.19,8.19c-.42-12.92-3.52-23.75-8.77-31.59,2.98-3.77,5.8-7.86,8.43-12.22,9.06,6.07,14.32,18.87,14.52,35.62Zm-17.57-37.39c-2.37,3.93-4.9,7.63-7.56,11.06-4.2-5.1-9.51-8.54-15.64-10.06,4.69-2.06,9.24-3.1,13.5-3.1,3.47,0,6.72,.73,9.71,2.1Zm-37.12,9.9c-5.6,8.22-10.38,17.3-14.2,26.73-2.27-.3-4.43-.92-6.47-1.86,5.89-9.79,12.94-18.39,20.67-24.87Zm-38.22,85.21l14.16-8.17c.42,12.92,3.52,23.76,8.77,31.6-2.97,3.77-5.79,7.84-8.42,12.2-9.06-6.07-14.31-18.87-14.52-35.62Zm17.58,37.37c2.36-3.92,4.88-7.59,7.53-11.01,4.19,5.08,9.47,8.51,15.58,10.04-8.47,3.7-16.47,4.03-23.11,.97Zm37.07-9.85c5.61-8.22,10.4-17.32,14.21-26.76,2.27,.3,4.44,.92,6.49,1.86-5.9,9.8-12.97,18.41-20.7,24.9Z" style="fill:#e0e0e0;"></path></g></g><g id="Shadows"><path id="Shadow" d="M408.78,290.09l-253.28,146.23c-2.32,1.34-6.07,1.34-8.38,0l-76.23-44.01c-2.32-1.34-2.32-3.5,0-4.84l253.28-146.23c2.32-1.34,6.07-1.34,8.38,0l76.23,44.01c2.32,1.34,2.32,3.5,0,4.84Z" style="fill:#e0e0e0;"></path><g id="Shadow-2"><path d="M234.58,464.93c-.62,0-1.55-.11-2.42-.61l-28.81-16.63c-1.03-.59-1.62-1.55-1.62-2.61,0-1.07,.59-2.02,1.62-2.61l8.04-4.64c.87-.5,1.8-.61,2.42-.61s1.55,.11,2.42,.61l28.81,16.63c1.03,.59,1.62,1.55,1.62,2.61,0,1.07-.59,2.02-1.62,2.61l-8.04,4.64c-.87,.5-1.8,.61-2.42,.61Z" style="fill:#e0e0e0;"></path><path d="M219.15,440.44l-.25-.75s-1.45-4.3-2.64-7.38l-.2-.5c-.24-.6-.49-1.2-.7-1.68-.12-.23-.19-.35-.21-.4-.12-.11-.66-.56-2.51-1.59-.8-.45-1.76-.96-2.94-1.58-.51-.27-1-.52-1.44-.75l-.73-.38c-.76-.39-1.18-.61-1.43-.75-.63-.36-1.06-.97-1.19-1.66-.1-.53-.07-1.35,.64-2.23,1.2-1.51,4.68-3.19,8.72-3.28,.12,0,.24,0,.35,0,1.22,0,2.44,.14,3.62,.42,2.59,.62,4.81,1.33,6.79,2.18,2.46,1.04,4.53,2.3,6.4,3.91l13.05-7.54c1.38-.81,3.07-1.25,4.89-1.27h.22c2.47,0,4.61,.72,5.78,1.4,1.59,.9,2.47,2.01,2.88,3.11,.23-.01,.47-.02,.72-.02,1.91,0,3.66,.46,5.22,1.35,1.67,.96,2.71,2.43,2.88,4.01,.03,.3,.03,.59,0,.89,.72,.25,1.53,.6,2.36,1.08,1.51,.87,2.49,2.6,2.49,4.4,0,.37-.04,.72-.12,1.06,.54,.23,1.11,.51,1.68,.83,1.72,.98,2.7,2.54,2.7,4.28,0,1.13-.46,3.3-3.47,5.03l-24.84,14.37-28.7-16.57Z" style="fill:#e0e0e0;"></path></g><path id="Shadow-3" d="M413.25,367.23l-32.68-18.87c-.84-.49-.84-1.27,0-1.76l48.41-27.95c.84-.49,2.21-.49,3.05,0l32.68,18.87c.84,.49,.84,1.27,0,1.76l-48.41,27.95c-.84,.49-2.21,.49-3.05,0Z" style="fill:#ebebeb;"></path><path id="Shadow-4" d="M344.11,462.78c.9-2.85,1.85-5.69,3.03-8.32,1.06-2.36,2.34-4.65,3.7-6.85,.43-.7,3.63-6.37,4.28-6.24,8.35,1.58,16.51,4.21,24.21,7.81,5.14,2.4,10.12,5.25,15.55,6.9,5.43,1.65,11.54,1.99,16.61-.57,5.73-2.89,10.05-11.28,6-17.14-3.21-4.64-8.15-5.83-13.37-6.77-6.3-1.13-17.25-1.26-24.15-3.79,6-5.26,11.95-11.65,17.13-16.86,7.83-7.9,16.33-17.05,9.22-26.93-1.23-1.71-2.7-3.29-4.45-4.46-3.69-2.48-14.69-6.69-25.59-8.86-10.9-2.17-22.15-4.1-40.74-5.27-18.59-1.17-42.07,1.46-52.75,7.17-10.68,5.71-16.38,15.17-15.45,25.18,1.47,15.89,19.79,22.44,27.87,25.77,5.79,2.38,11.89,3.87,17.88,5.63,3.04,.9,6.05,1.86,8.99,3.06,2.1,.86,5.2,2.22,5.8,4.64,.23,.92,.13,1.9-.11,2.82-.61,2.3-2.07,4.27-3.17,6.39-4.1,7.91-4.56,20,.03,27.79,3.2,5.42,10.59,7.42,14.66,1.72,1.28-1.8,1.99-3.92,2.7-6.01,.75-2.21,1.43-4.51,2.16-6.8Z" style="fill:#e0e0e0;"></path><path id="Shadow-5" d="M99.87,417.38c9.65,5.63,9.65,14.76,0,20.4-9.65,5.63-25.29,5.63-34.94,0-9.65-5.63-9.65-14.76,0-20.4,9.65-5.63,25.29-5.63,34.94,0Z" style="fill:#e0e0e0;"></path></g><g id="Device"><g id="Device-2"><g id="Case"><g><path d="M325.94,249.67l4.6-2.65s24.41-79.62,26.68-84.24c2.27-4.61-1.84-6.97-6.23-4.43L121.86,290.45c-4.4,2.54-5.78,6.03-9.69,13.62-3.91,7.59-25.95,80.76-25.95,80.76-.33,1.7,.46,3.43,1.96,4.3l52.17,30.21,239.65-138.36-54.07-31.32Z" style="fill:#BA68C8;"></path><path d="M325.94,249.67l4.6-2.65s24.41-79.62,26.68-84.24c2.27-4.61-1.84-6.97-6.23-4.43L121.86,290.45c-4.4,2.54-5.78,6.03-9.69,13.62-3.91,7.59-25.95,80.76-25.95,80.76-.33,1.7,.46,3.43,1.96,4.3l52.17,30.21,239.65-138.36-54.07-31.32Z" style="fill:#fff; opacity:.35;"></path><path d="M115.05,305.91c-2.97,5.76-25.92,80.47-25.92,80.47l244.3-141.05s24.23-75.94,26.65-80.73c2.42-4.78-1.84-6.97-6.23-4.43L124.74,292.29c-4.4,2.54-6.71,7.86-9.69,13.62Z" style="fill:#BA68C8;"></path><path d="M115.05,305.91c-2.97,5.76-25.92,80.47-25.92,80.47l244.3-141.05s24.23-75.94,26.65-80.73c2.42-4.78-1.84-6.97-6.23-4.43L124.74,292.29c-4.4,2.54-6.71,7.86-9.69,13.62Z" style="opacity:.15;"></path><polygon points="328.78 248.03 89.13 386.39 142.2 417.04 381.85 278.68 328.78 248.03" style="fill:#BA68C8;"></polygon></g><path d="M345.47,73.54L114.58,206.6c-5.06,2.92-6.64,7.65-5.75,13.89l27.32,191.75c.89,6.24,5.86,9.88,10.92,6.96l228.85-132.07c5.06-2.92,8.44-10.35,7.55-16.58l-27.22-191.02c-.89-6.24-5.72-8.92-10.78-6Z" style="fill:#BA68C8;"></path><path d="M345.47,73.54L114.58,206.6c-5.06,2.92-6.64,7.65-5.75,13.89l27.32,191.75c.89,6.24,5.86,9.88,10.92,6.96l228.85-132.07c5.06-2.92,8.44-10.35,7.55-16.58l-27.22-191.02c-.89-6.24-5.72-8.92-10.78-6Z" style="fill:#fff; opacity:.35;"></path></g><g id="Tablet"><path d="M361.03,77.61c-1.82-.71-3.99-.51-6.22,.77L125.95,210.46c-2.43,1.4-4.46,3.85-5.84,6.7l-7.39-3.13c1.62-3.54,4.46-4.84,6.88-6.25L348.44,75.7c2.34-1.34,4.61-1.49,6.47-.66h0l6.12,2.57Z" style="fill:#455a64;"></path><path d="M143.57,421.13h0c-2.27-.94-3.95-3.3-4.44-6.72l-27.08-190.05c-.56-3.9-.74-7.39,.68-10.33l7.39,3.13c-.19,.41-.37,.82-.55,1.25-.13,.34-.25,.69-.36,1.03-.02,.05-.04,.11-.05,.16-.14,.39-.25,.79-.35,1.2-.11,.41-.2,.84-.27,1.25-.07,.32-.11,.63-.13,.95-.18,1.36-.18,2.73,0,4.05l27.21,191.01c.5,3.46,2.21,5.84,4.51,6.76l-6.56-3.68Z" style="fill:#263238;"></path><path d="M354.8,78.39L123.91,211.45c-5.06,2.92-6.64,7.65-5.75,13.89l27.46,192.72c.89,6.24,5.72,8.92,10.78,6l228.85-132.07c5.06-2.92,8.44-10.35,7.55-16.58l-27.22-191.02c-.89-6.24-5.72-8.92-10.78-6Z" style="fill:#37474f;"></path><g><path d="M371.2,291.11l-204.27,117.88c-2.62,1.51-5.13,.12-5.59-3.11l-26.95-189.04c-.46-3.23,1.29-7.08,3.91-8.59l204.27-117.88c2.62-1.51,5.13-.12,5.59,3.11l26.95,189.04c.46,3.23-1.29,7.08-3.91,8.59Z" style="fill:#263238;"></path><path d="M134.4,216.84l26.95,189.04c.02,.13,.05,.25,.07,.37l204.27-117.88c2.62-1.51,4.38-5.36,3.91-8.59l-27.02-189.41-204.27,117.88c-2.62,1.51-4.38,5.36-3.91,8.59Z" style="fill:#BA68C8;"></path><path d="M134.4,216.84l26.95,189.04c.02,.13,.05,.25,.07,.37l204.27-117.88c2.62-1.51,4.38-5.36,3.91-8.59l-27.02-189.41-204.27,117.88c-2.62,1.51-4.38,5.36-3.91,8.59Z" style="fill:#fff; opacity:.7;"></path></g><g><path d="M144.81,333.9c.23,1.63-.65,3.56-1.97,4.32-1.32,.76-2.58,.06-2.81-1.56-.23-1.63,.65-3.56,1.97-4.32,1.32-.76,2.58-.06,2.81,1.56Z" style="fill:#263238;"></path><path d="M135.88,289.63h0c-1.03,.59-1.71,2.1-1.53,3.36l4.47,31.13c.18,1.26,1.16,1.81,2.19,1.22h0c1.03-.59,1.71-2.1,1.53-3.36l-4.47-31.13c-.18-1.26-1.16-1.81-2.19-1.22Z" style="fill:#263238;"></path></g></g></g></g><g id="Tab"><g id="Window"><g><g><path d="M185.3,359.27c-1.31,0-2.27-1.06-2.51-2.77l-30.02-209.78c-.37-2.59,1.03-5.67,3.12-6.88L314.69,48.15c.53-.31,1.05-.46,1.55-.46,1.3,0,2.27,1.06,2.51,2.77l30.02,209.78c.37,2.59-1.03,5.67-3.12,6.88l-158.8,91.7c-.53,.31-1.05,.46-1.55,.46Z" style="fill:#fafafa;"></path><path d="M316.24,48.18c1.04,0,1.82,.9,2.02,2.35l30.02,209.78c.34,2.36-.98,5.29-2.88,6.38l-158.8,91.7c-.45,.26-.89,.39-1.3,.39-1.04,0-1.82-.9-2.02-2.35l-30.02-209.78c-.34-2.36,.98-5.29,2.88-6.38L314.93,48.57c.45-.26,.89-.39,1.3-.39m0-.98c-.57,0-1.18,.17-1.8,.53l-158.8,91.7c-2.25,1.3-3.76,4.6-3.36,7.37l30.02,209.78c.29,2.01,1.5,3.19,3,3.19,.57,0,1.18-.17,1.8-.53l158.8-91.7c2.25-1.3,3.75-4.6,3.36-7.37l-30.02-209.78c-.29-2.01-1.5-3.19-3-3.19h0Z" style="fill:#BA68C8;"></path></g><path d="M319.24,50.39l1.74,12.16-166.96,96.4-1.74-12.16c-.4-2.78,1.11-6.08,3.36-7.38L314.44,47.72c2.26-1.3,4.41-.11,4.8,2.67Z" style="fill:#BA68C8;"></path><g><path d="M184.15,359.51c-1.33-.55-4.91-2.09-5.72-2.43-1-.41-1.74-1.46-1.96-2.98l-28.28-197.61,5.83,2.48,28.28,197.61c.21,1.46,.91,2.48,1.85,2.93Z" style="fill:#BA68C8;"></path><path d="M184.15,359.51c-1.33-.55-4.91-2.09-5.72-2.43-1-.41-1.74-1.46-1.96-2.98l-28.28-197.61,5.83,2.48,28.28,197.61c.21,1.46,.91,2.48,1.85,2.93Z" style="fill:#fff; opacity:.5;"></path></g><g><path d="M317.18,47.36c-.8-.3-1.76-.2-2.74,.36l-158.81,91.69c-2.25,1.3-3.75,4.6-3.36,7.37l1.74,12.17-5.83-2.48-1.74-12.17c-.21-1.44,.1-3.02,.77-4.39,.6-1.27,1.51-2.37,2.59-2.98L308.62,45.25c1.02-.6,2.02-.67,2.84-.32,.96,.41,4.57,1.94,5.73,2.44Z" style="fill:#BA68C8;"></path><g style="opacity:.2;"><path d="M317.18,47.36c-.8-.3-1.76-.2-2.74,.36l-158.81,91.69c-2.25,1.3-3.75,4.6-3.36,7.37l1.74,12.17-5.83-2.48-1.74-12.17c-.21-1.44,.1-3.02,.77-4.39,.6-1.27,1.51-2.37,2.59-2.98L308.62,45.25c1.02-.6,2.02-.67,2.84-.32,.96,.41,4.57,1.94,5.73,2.44Z" style="fill:#fff;"></path></g></g><g><path d="M153.04,142.39c-.66,1.37-.97,2.96-.76,4.4l1.74,12.17-5.83-2.48-1.74-12.17c-.21-1.44,.1-3.02,.77-4.39,0,0,0,0,0,0l5.82,2.48Z" style="fill:#BA68C8;"></path><path d="M153.04,142.39c-.66,1.37-.97,2.96-.76,4.4l1.74,12.17-5.83-2.48-1.74-12.17c-.21-1.44,.1-3.02,.77-4.39,0,0,0,0,0,0l5.82,2.48Z" style="opacity:.15;"></path></g><g><path d="M293.46,66.14c-1.41,.81-2.35,2.88-2.1,4.62,.25,1.74,1.59,2.48,3,1.67,1.41-.81,2.35-2.88,2.1-4.62-.25-1.74-1.59-2.48-3-1.67Z" style="fill:#fafafa;"></path><path d="M302.65,60.83c-1.41,.81-2.35,2.88-2.1,4.62,.25,1.74,1.59,2.48,3,1.67,1.41-.81,2.35-2.88,2.1-4.62-.25-1.74-1.59-2.48-3-1.67Z" style="fill:#fafafa;"></path><path d="M311.83,55.52c-1.41,.81-2.35,2.88-2.1,4.62,.25,1.74,1.59,2.48,3,1.67,1.41-.81,2.35-2.88,2.1-4.62-.25-1.74-1.59-2.48-3-1.67Z" style="fill:#fafafa;"></path></g></g><g><g><path d="M321.19,188.84l-5.24-36.75c-.31-2.19-2.01-3.14-3.79-2.11l-85.46,49.36c-1.78,1.03-2.97,3.64-2.66,5.83l5.25,36.75c.31,2.19,2.01,3.14,3.79,2.11l13.52-7.81-.47,8.32,7.5-12.38,64.91-37.49c1.78-1.03,2.97-3.64,2.66-5.83Z" style="fill:#BA68C8;"></path><path d="M321.19,188.84l-5.24-36.75c-.31-2.19-2.01-3.14-3.79-2.11l-85.46,49.36c-1.78,1.03-2.97,3.64-2.66,5.83l5.25,36.75c.31,2.19,2.01,3.14,3.79,2.11l13.52-7.81-.47,8.32,7.5-12.38,64.91-37.49c1.78-1.03,2.97-3.64,2.66-5.83Z" style="fill:#fff; opacity:.7;"></path></g><line x1="318.62" y1="137.1" x2="175.55" y2="219.7" style="fill:none; stroke:#e0e0e0; stroke-linecap:round; stroke-linejoin:round; stroke-width:1.64px;"></line><g><path d="M187.18,148.7c-7.74,4.47-12.91,15.82-11.54,25.35,1.36,9.53,8.74,13.64,16.48,9.17,7.74-4.47,12.91-15.82,11.54-25.35-1.36-9.53-8.75-13.64-16.49-9.17Z" style="fill:#BA68C8;"></path><path d="M187.18,148.7c-7.74,4.47-12.91,15.82-11.54,25.35,1.36,9.53,8.74,13.64,16.48,9.17,7.74-4.47,12.91-15.82,11.54-25.35-1.36-9.53-8.75-13.64-16.49-9.17Z" style="fill:#fff; opacity:.7;"></path><g id="Character"><g id="Top"><g id="Arm"><path d="M200.75,173.58c-.72,1.42-1.56,2.78-2.49,4.02l-1.58-4.62c1.75-.05,2.93-.02,4.07,.61Z" style="fill:#f0997a;"></path></g><g id="Chest"><path d="M199.67,175.51c-1.99,3.26-4.58,5.99-7.56,7.71-2.26,1.31-4.5,1.88-6.55,1.8,.14-.45,.24-.96,.3-1.56,.46-4.81-1.61-7.09-1.61-7.09,0,0,1.5-.87,3.44-1.63,1.94-.75,3.03-1.14,6.69-1.68l2.3-.07s1.46,1.09,3,2.53Z" style="fill:#fafafa;"></path></g><g id="Head"><path id="Hair" d="M199.74,171.58c.51-3.82-3.95-3.47-5.25-5.92l3.38-2.63c2.09-1.42,1.67-4.53,.97-6.12-1.56-3.55-5.32-4.68-7.57-4.66-4.28,.02-6.24,1.34-6.45,3.75-1.58-.04-3.8,1.82-3.57,6.98,.05,1.03,.16,2.28-.31,3.18-.41,.78-1.04,1.55-1.3,2.43-.44,1.47,.11,3.59,1.82,3.81-.14-.39-.37-.9-.08-1.27,.2,1.82,3.18,2.85,4.5,2.35-.36-.23-.65-.43-.79-.88,2.25,1.15,4.1,.61,6.27-.33,.39-.17,.66-.25,1.95,.09,.78,.2,1.73,.29,3.16-.57,.9-.55,2.31-1.36,3.25-.19Z" style="fill:#37474f;"></path><g><path d="M186.47,167.88c-.76,.17-1.51-.22-2.01-.77-1.11-1.21-1.28-2.45-.85-3.3,.35-.69,1.3-1.15,2.02-.7,.76,.48,.81,.88,1.12,1.44,.32,.57,1.38,.48,1.49-1.78,.11-2.11,.28-4.05,1.18-5.02,1.34-1.45,3.03-.86,3.65-.03,.52-.99,1.52-1.39,2.53-.85,.99,.53,1.62,1.69,2.2,5.67,.59,4.06-.01,6.97-.84,7.67-.62,.53-1.45,.66-2.86,.76l.11,2.69s2.24,1.77,2.46,5.26c-2.47-.53-6.97-2.11-9.07-4l-.36-7.69s-.05,.49-.77,.66Z" style="fill:#ffbda7;"></path><g><g><path d="M192.05,163.02c-.08,.37-.42,.59-.76,.48-.34-.1-.54-.49-.46-.86,.08-.37,.42-.59,.76-.48s.54,.49,.46,.86Z" style="fill:#263238;"></path><path d="M191.37,162.14c-.39,.02-.59,.59-.98,.37,.08,.3,.51,.48,.78,.32,.17-.1,.2-.69,.2-.69Z" style="fill:#263238;"></path></g><path d="M196.79,161.01l-1.37-.7c.15-.41,.58-.59,.96-.39,.38,.19,.56,.68,.42,1.09Z" style="fill:#263238;"></path><g><path d="M195.34,162.74c.14,.36,.52,.54,.83,.41,.31-.14,.45-.54,.31-.9-.14-.36-.52-.54-.83-.41-.31,.14-.45,.54-.31,.9Z" style="fill:#263238;"></path><path d="M195.87,161.8c.39-.02,.68,.53,1.03,.28-.03,.31-.43,.52-.72,.39-.19-.08-.31-.67-.31-.67Z" style="fill:#263238;"></path></g><path d="M191.39,160.62l-1.29,.94c-.27-.39-.21-.92,.15-1.18,.36-.26,.87-.15,1.14,.24Z" style="fill:#263238;"></path><g><path d="M191.79,166.4l2.12,.59c-.1,.63-.72,1.01-1.38,.8-.58-.18-.84-.75-.73-1.39Z" style="fill:#b16668;"></path><path d="M193.12,167.82c-.12-.61-.65-1.06-1.24-1.01-.04,0-.07,.01-.1,.02,.05,.45,.3,.82,.75,.97,.21,.07,.41,.07,.6,.03Z" style="fill:#f0997a;"></path></g><polygon points="193.22 161.55 193.89 165.54 195.85 164.66 193.22 161.55" style="fill:#f0997a;"></polygon><path d="M194.11,170.97c-1.32-.06-2.71-.18-4.08-.72-.48-.19-1.19-1.07-1.79-2.06,0,0,.54,1.98,1.6,2.62,1.62,.97,4.31,1.07,4.31,1.07l-.04-.91Z" style="fill:#f0997a;"></path></g></g><g><path d="M187.79,168.02c.1,.76-.26,1.47-.84,1.81-.19,.12-.4,.19-.64,.21-.95,.09-1.82-.66-1.95-1.69-.05-.4,.02-.8,.19-1.13,.05,.06,.11,.11,.16,.15,.11,.09,.22,.16,.32,.22-.11,.22-.15,.46-.12,.72,.09,.69,.68,1.2,1.32,1.14,.26-.03,.48-.14,.65-.31,.26-.26,.4-.63,.35-1.04-.09-.69-.68-1.2-1.31-1.14-.16,.02-.3-.11-.32-.28-.02-.16,.08-.31,.24-.33,.95-.09,1.82,.66,1.95,1.69Z" style="fill:#BA68C8;"></path><path d="M187.79,168.02c.1,.76-.26,1.47-.84,1.81-.19,.12-.4,.19-.64,.21-.95,.09-1.82-.66-1.95-1.69-.05-.4,.02-.8,.19-1.13,.05,.06,.11,.11,.16,.15,.11,.09,.22,.16,.32,.22-.11,.22-.15,.46-.12,.72,.09,.69,.68,1.2,1.32,1.14,.26-.03,.48-.14,.65-.31,.26-.26,.4-.63,.35-1.04-.09-.69-.68-1.2-1.31-1.14-.16,.02-.3-.11-.32-.28-.02-.16,.08-.31,.24-.33,.95-.09,1.82,.66,1.95,1.69Z" style="opacity:.2;"></path></g></g><g id="Arm-2"><path d="M187.14,184.95c-2.59,.31-4.98-.38-6.91-1.91,.19-4.14,1.38-5.04,4.02-6.68,2.86,2.65,2.94,7.3,2.9,8.59Z" style="fill:#ffbda7;"></path></g></g></g></g><path d="M186.46,195.93l-1.93,.75c-.12,.05-.24,.01-.31-.09l-1.14-1.61c-.18-.26-.57-.03-.65,.38l-.54,2.58c-.03,.16-.12,.31-.24,.4l-1.83,1.42c-.29,.23-.35,.75-.09,.88l1.59,.85c.1,.05,.16,.18,.16,.34v2.49c.01,.4,.36,.49,.6,.17l1.52-2.06c.1-.13,.22-.2,.34-.2l1.84,.12c.29,.02,.56-.44,.46-.78l-.65-2.12c-.04-.13-.02-.3,.05-.46l1.13-2.42c.18-.38,0-.77-.31-.65Zm10.94-6.3l-1.93,.75c-.12,.05-.24,.01-.31-.09l-1.14-1.61c-.18-.26-.57-.03-.65,.38l-.54,2.58c-.03,.16-.12,.31-.24,.4l-1.83,1.42c-.29,.23-.35,.75-.09,.88l1.59,.85c.1,.05,.16,.18,.16,.34v2.49c.01,.4,.36,.49,.6,.17l1.52-2.06c.1-.13,.22-.2,.34-.2l1.84,.12c.29,.02,.56-.44,.46-.78l-.65-2.12c-.04-.13-.02-.3,.05-.46l1.13-2.42c.18-.38,0-.77-.31-.65Zm10.94-6.3l-1.93,.75c-.12,.05-.24,.01-.31-.09l-1.14-1.61c-.18-.26-.57-.03-.65,.38l-.54,2.58c-.03,.16-.12,.31-.24,.4l-1.83,1.42c-.29,.23-.35,.75-.09,.88l1.59,.85c.1,.05,.16,.18,.16,.34v2.49c.01,.4,.36,.49,.6,.17l1.52-2.06c.1-.13,.22-.2,.34-.2l1.84,.12c.29,.02,.56-.44,.46-.78l-.65-2.12c-.04-.13-.02-.3,.05-.46l1.13-2.42c.18-.38,0-.77-.31-.65Z" style="fill:#BA68C8; opacity:.5;"></path><g><path d="M308.14,110.72l-3.58-25.16c-.31-2.19-2.01-3.14-3.79-2.11l-85.46,49.36c-1.78,1.03-2.97,3.64-2.66,5.83l3.58,25.16c.31,2.19,2.01,3.14,3.79,2.11l11.88-6.86-.46,8.08,7.28-12.02,66.75-38.55c1.78-1.03,2.97-3.64,2.66-5.83Z" style="fill:#BA68C8;"></path><path d="M308.14,110.72l-3.58-25.16c-.31-2.19-2.01-3.14-3.79-2.11l-85.46,49.36c-1.78,1.03-2.97,3.64-2.66,5.83l3.58,25.16c.31,2.19,2.01,3.14,3.79,2.11l11.88-6.86-.46,8.08,7.28-12.02,66.75-38.55c1.78-1.03,2.97-3.64,2.66-5.83Z" style="fill:#fff; opacity:.7;"></path><path d="M302.99,101.97c-.05-.43-.3-.61-.61-.44l-83.45,48.18c-.41,.23-.72,.99-.66,1.56,.05,.43,.3,.61,.61,.44l83.45-48.18c.41-.23,.72-.99,.66-1.56Zm.6,4.35c-.05-.43-.3-.61-.61-.44l-83.45,48.18c-.41,.23-.72,.99-.66,1.56,.05,.43,.3,.61,.61,.44l83.45-48.18c.41-.23,.72-.99,.66-1.56Zm-2.39-17.39c-.05-.43-.3-.61-.61-.44l-83.45,48.18c-.41,.23-.72,.99-.66,1.56,.05,.43,.3,.61,.61,.44l83.45-48.18c.41-.23,.72-.99,.66-1.56Zm1.19,8.7c-.05-.43-.3-.61-.61-.44l-83.45,48.18c-.41,.23-.72,.99-.66,1.56,.05,.43,.3,.61,.61,.44l83.45-48.18c.41-.23,.72-.99,.66-1.56Zm-.6-4.35c-.05-.43-.3-.61-.61-.44l-83.45,48.18c-.41,.23-.72,.99-.66,1.56,.05,.43,.3,.61,.61,.44l83.45-48.18c.41-.23,.72-.99,.66-1.56Zm-30.78,36.55c-.05-.43-.3-.61-.61-.44l-50.28,29.02c-.41,.23-.72,.99-.66,1.56,.05,.43,.3,.61,.61,.44l50.28-29.02c.41-.23,.72-.99,.66-1.56Z" style="fill:#fff;"></path></g><line x1="330.01" y1="203.63" x2="186.93" y2="286.23" style="fill:none; stroke:#e0e0e0; stroke-linecap:round; stroke-linejoin:round; stroke-width:1.64px;"></line><g><path d="M198.56,215.23c-7.74,4.47-12.91,15.82-11.54,25.35,1.36,9.53,8.74,13.64,16.48,9.17,7.74-4.47,12.91-15.82,11.54-25.35-1.37-9.53-8.75-13.64-16.49-9.17Z" style="fill:#BA68C8;"></path><path d="M198.56,215.23c-7.74,4.47-12.91,15.82-11.54,25.35,1.36,9.53,8.74,13.64,16.48,9.17,7.74-4.47,12.91-15.82,11.54-25.35-1.37-9.53-8.75-13.64-16.49-9.17Z" style="fill:#fff; opacity:.7;"></path><g id="Character-2"><path d="M206.98,247.11c1.77-1.67,3.32-3.7,4.59-5.96-1.02-.82-2.2-1.05-3.49-1.2l-1.1,7.16Z" style="fill:#455a64;"></path><path d="M210.79,242.46c-1.18-2.02-2.4-2.44-2.72-2.5-1.2-.22-3.81-.42-7.72,.25-3.03,.52-7.21,2.76-7.21,2.76-.89,.82-1.06,3.66-.8,7.1,3.06,1.99,7.05,2.05,11.16-.32,2.85-1.64,5.34-4.22,7.29-7.29Z" style="fill:#BA68C8;"></path><g><g><path d="M208.64,227.9c.51-.45,.94-.95,1.14-1.75,.22-.86,.27-1.54,.15-2.44-.03-.2-.16-.66-.26-.83-.2-.31-.57-.39-.89-.43-.21-.03-.42-.05-.63-.07,.35-.44,.7-.9,.85-1.47,.11-.42,.11-.89-.02-1.32-.03-.12-.08-.23-.16-.32-.19-.2-.48-.15-.71-.08-1.9,.63-3.78,.52-4.44,.5-1.19-.04-1.79-.18-3.43-.29s-4.49,.76-4.77,4.09c-2.15,.45-2.18,4.25-1.45,5.84,1.35,2.92,2.58,4.84,3.3,6.95,.11-.09,7.11-4.86,8.7-6.18,.6-.5,1.19-1,1.79-1.49,.29-.24,.57-.46,.84-.69Z" style="fill:#263238;"></path><path d="M195.04,234.15c1.37,1.01,2.15-.01,2.15-.01l.43,7.16c2.94,3.71,10.1,2.93,6.74-.81l-.04-1.72s1.09,.04,1.99-.14c.39-.08,.83-.27,1.13-.49,.71-.52,1.19-1.2,1.44-2.33,.29-1.35,.4-3.15,.28-5.14-.12-2.08-.49-4.76-1.22-6.14-1.22-1.07-4.66-1.1-7.49-.14,0,.78,.11,1.46-.41,2.32-.26,.43-.68,.76-1.04,.96,.02,1.51-.01,1.92-.23,2.6-.12,.39-.37,.97-1.1,.71-.34-.12-.64-.92-1.03-1.45-.51-.71-2-1.01-2.62,.56-.62,1.6,.09,3.36,1.03,4.06Z" style="fill:#ffa8a7;"></path><path d="M204.32,238.77c-1.47-.12-4.1-.66-4.92-1.6-.81-.94-1.54-3.15-1.54-3.15,0,0,.45,2.48,1.09,3.55,.64,1.07,1.93,1.48,2.86,1.76,.94,.28,2.53,.39,2.53,.39l-.03-.95Z" style="fill:#f28f8f;"></path></g><g><path d="M202.66,228.19l-1.35,.69c-.19-.43-.03-.93,.34-1.12,.37-.19,.83,0,1.01,.43Z" style="fill:#263238;"></path><path d="M206.7,228.01l1.39,.74c.16-.42-.02-.93-.4-1.13-.38-.2-.83-.03-.99,.39Z" style="fill:#263238;"></path><path d="M202.55,233.61l2.59,.99c-.25,.77-1.03,1.17-1.74,.9-.72-.27-1.1-1.12-.85-1.89Z" style="fill:#b16668;"></path><path d="M202.67,234.18c.72-.02,1.35,.6,1.41,1.38-.22,.04-.45,.03-.67-.06-.53-.2-.88-.72-.92-1.29,.06-.01,.12-.02,.18-.02Z" style="fill:#f28f8f;"></path><polygon points="204.29 228.31 205.06 233.22 207.35 232.1 204.29 228.31" style="fill:#f28f8f;"></polygon><path d="M201.92,230c.02,.37,.31,.67,.66,.67,.34,0,.61-.3,.59-.68-.02-.37-.31-.67-.66-.67-.34,0-.61,.3-.59,.68Z" style="fill:#263238;"></path><path d="M206.53,229.76c.02,.37,.31,.67,.66,.67,.34,0,.61-.3,.59-.68-.02-.37-.31-.67-.66-.67-.34,0-.61,.3-.59,.68Z" style="fill:#263238;"></path></g></g><path d="M196.7,249.58c-.21-4.07-3.56-6.6-3.56-6.6-1.42,.74-3.11,2.12-3.93,3.89,1.81,2.86,4.5,4.5,7.58,4.67-.03-.64-.06-1.28-.1-1.95Z" style="fill:#455a64;"></path></g></g><path d="M197.85,262.46l-1.93,.75c-.12,.05-.24,.01-.31-.09l-1.14-1.61c-.18-.26-.57-.03-.65,.38l-.54,2.58c-.03,.16-.12,.31-.24,.4l-1.83,1.42c-.29,.23-.35,.75-.09,.88l1.59,.85c.1,.05,.16,.18,.16,.34v2.49c.01,.4,.36,.49,.6,.17l1.52-2.06c.1-.13,.22-.2,.34-.2l1.84,.12c.29,.02,.56-.44,.46-.78l-.65-2.12c-.04-.13-.02-.3,.05-.46l1.13-2.42c.18-.38,0-.77-.31-.65Zm10.94-6.3l-1.93,.75c-.12,.05-.24,.01-.31-.09l-1.14-1.61c-.18-.26-.57-.03-.65,.38l-.54,2.58c-.03,.16-.12,.31-.24,.4l-1.83,1.42c-.29,.23-.35,.75-.09,.88l1.59,.85c.1,.05,.16,.18,.16,.34v2.49c.01,.4,.36,.49,.6,.17l1.52-2.06c.1-.13,.22-.2,.34-.2l1.84,.12c.29,.02,.56-.44,.46-.78l-.65-2.12c-.04-.13-.02-.3,.05-.46l1.13-2.42c.18-.38,0-.77-.31-.65Zm10.94-6.3l-1.93,.75c-.12,.05-.24,.01-.31-.09l-1.14-1.61c-.18-.26-.57-.03-.65,.38l-.54,2.58c-.03,.16-.12,.31-.24,.4l-1.83,1.42c-.29,.23-.35,.75-.09,.88l1.59,.85c.1,.05,.16,.18,.16,.34v2.49c.01,.4,.36,.49,.6,.17l1.52-2.06c.1-.13,.22-.2,.34-.2l1.84,.12c.29,.02,.56-.44,.46-.78l-.65-2.12c-.04-.13-.02-.3,.05-.46l1.13-2.42c.18-.38,0-.77-.31-.65Z" style="fill:#BA68C8; opacity:.5;"></path><path d="M314.37,168.51c-.05-.43-.3-.61-.61-.44l-83.45,48.18c-.41,.23-.72,.99-.66,1.56,.05,.43,.3,.61,.61,.44l83.45-48.18c.41-.23,.72-.99,.66-1.56Zm-1.79-13.04c-.05-.43-.3-.61-.61-.44l-83.45,48.18c-.41,.23-.72,.99-.66,1.56,.05,.43,.3,.61,.61,.44l83.45-48.18c.41-.23,.72-.99,.66-1.56Zm1.19,8.7c-.05-.43-.3-.61-.61-.44l-83.45,48.18c-.41,.23-.72,.99-.66,1.56,.05,.43,.3,.61,.61,.44l83.45-48.18c.41-.23,.72-.99,.66-1.56Zm-.6-4.35c-.05-.43-.3-.61-.61-.44l-83.45,48.18c-.41,.23-.72,.99-.66,1.56,.05,.43,.3,.61,.61,.44l83.45-48.18c.41-.23,.72-.99,.66-1.56Zm2.39,17.39c-.05-.43-.3-.61-.61-.44l-83.45,48.18c-.41,.23-.72,.99-.66,1.56h0c.05,.43,.3,.61,.61,.44l83.45-48.18c.41-.23,.72-.99,.66-1.56Zm-54.05,45.27c-.05-.43-.3-.61-.61-.44l-27.6,15.95c-.41,.23-.72,.99-.66,1.56,.05,.43,.3,.61,.61,.44l27.6-15.95c.41-.23,.72-.99,.66-1.56Zm55.25-36.57c-.05-.43-.3-.61-.61-.44l-83.44,48.18c-.41,.23-.72,.99-.66,1.56,.05,.43,.3,.61,.61,.44l83.45-48.18c.41-.23,.72-.99,.66-1.56Zm-.6-4.35h0c-.05-.43-.3-.61-.61-.44l-83.45,48.18c-.41,.23-.72,.99-.66,1.56,.05,.43,.3,.61,.61,.44l83.45-48.18c.41-.23,.72-.99,.66-1.56Zm-34.36,10.46c-.05-.43-.3-.61-.61-.44l-50.28,29.02c-.41,.23-.72,.99-.66,1.56,.05,.43,.3,.61,.61,.44l50.28-29.02c.41-.23,.72-.99,.66-1.56Z" style="fill:#fff;"></path><g><path d="M209.94,281.77c-7.74,4.47-12.91,15.82-11.54,25.35,1.36,9.53,8.74,13.64,16.48,9.17,7.74-4.47,12.91-15.82,11.54-25.35-1.36-9.53-8.75-13.64-16.49-9.17Z" style="fill:#BA68C8;"></path><path d="M209.94,281.77c-7.74,4.47-12.91,15.82-11.54,25.35,1.36,9.53,8.74,13.64,16.48,9.17,7.74-4.47,12.91-15.82,11.54-25.35-1.36-9.53-8.75-13.64-16.49-9.17Z" style="fill:#fff; opacity:.7;"></path><g id="Character-3"><path d="M219.8,297.23l-15.1-1.77v21.7c2.91,1.42,6.5,1.25,10.19-.87,1.64-.95,3.16-2.22,4.54-3.71,0-.12,0-.25,0-.37,.1,.03,.19,.04,.28,.06,.03-.04,.06-.07,.1-.11v-14.93Z" style="fill:#37474f;"></path><path d="M220.34,311.53c.88-1.07,1.68-2.25,2.4-3.48-.94-.71-2.03-1.11-4-1.17l1.59,4.65Z" style="fill:#c8856a;"></path><path d="M218.75,306.88l-2.89-.04s-6.33,.79-8.19,1.08c-.73,.1-1.58,.22-1.58,.22-.88,.46-1.71,1.77-1.37,7.89,.02,.37,.05,.77,.08,1.18,2.89,1.37,6.45,1.18,10.09-.92,2.66-1.54,5.01-3.9,6.91-6.72-1.66-1.7-3.04-2.69-3.04-2.69Z" style="fill:#BA68C8;"></path><path d="M218.75,306.88l-2.89-.04s-6.33,.79-8.19,1.08c-.73,.1-1.58,.22-1.58,.22-.88,.46-1.71,1.77-1.37,7.89,.02,.37,.05,.77,.08,1.18,2.89,1.37,6.45,1.18,10.09-.92,2.66-1.54,5.01-3.9,6.91-6.72-1.66-1.7-3.04-2.69-3.04-2.69Z" style="fill:#fff; opacity:.5;"></path><g><path d="M207.01,289.79c-2.31,1.36-2.31,2.96-2.31,5.67,0,6.64,4.93,6.64,5.19,8.79,1.51-1.04,3.01-2.08,4.52-3.12,1.86-1.28,4.13-2.38,4.93-4.63,.28-.79,.5-2.47,.5-2.47l2.43-.09s-.31-3.24-1.06-4.67c-1.85-3.5-5.81-4.64-9.39-3.66-2.03,.55-4.34,1.84-4.81,4.19Z" style="fill:#37474f;"></path><path d="M209.79,306.03l-.25-4.82s-.97,.99-2.34-.04c-1.59-1.19-1.63-2.99-.99-4.02,.7-1.14,2.46-.77,3.3,.58,1.15,.26,1.49-1.49,.51-3.25,0,0,2.2-1.51,1.59-4.1,2.03,1.26,6.6,1.75,7.53-.46,.7,1,1.73,2.16,2,7.67,.19,3.84-.34,5.54-1.59,6.45-.67,.48-1.78,.8-3.23,.84l.15,1.3h0c.07,.65,.21,.67,.74,.68,.42,.01,.79,.03,.79,.03,0,0,2.12,2.41-1.58,3.04-5.52,.94-8.74-1.99-8.74-1.99,0,0,.76-.12,.91-.15,.94-.21,1.2-.86,1.22-1.74Z" style="fill:#c8856a;"></path><path d="M214.59,300.2l2.06,.64c-.13,.63-.69,.99-1.26,.81-.57-.18-.93-.83-.8-1.46Z" style="fill:#af6152;"></path><path d="M214.75,300.7c.56-.03,1.07,.38,1.23,.95-.18,.06-.38,.07-.59,0-.41-.13-.7-.5-.79-.93,.05-.01,.1-.02,.15-.02Z" style="fill:#ffa8a7;"></path><path d="M220.05,294.66l-1.53-.67c.14-.46,.59-.68,1.02-.49,.42,.19,.65,.71,.52,1.16Z" style="fill:#37474f;"></path><path d="M212.93,295.04l1.39-.89c-.23-.44-.73-.59-1.12-.35-.38,.25-.5,.8-.27,1.24Z" style="fill:#37474f;"></path><polygon points="216.43 295 216.96 299.61 219.09 298.58 216.43 295" style="fill:#af6152;"></polygon><path d="M218.37,295.77c0,.4,.3,.75,.68,.78,.38,.03,.68-.26,.68-.66,0-.4-.3-.75-.67-.78-.38-.03-.68,.26-.68,.66Z" style="fill:#263238;"></path><path d="M213.46,296.02c0,.4,.3,.75,.68,.78,.38,.03,.68-.26,.68-.66,0-.4-.3-.75-.67-.78-.38-.03-.68,.26-.69,.66Z" style="fill:#263238;"></path><path d="M216.31,304.86c-2.59-.22-4.71-.61-5.89-3.06,0,0,.16,1.61,1.43,2.72,1.33,1.16,4.57,1.32,4.57,1.32l-.11-.98Z" style="fill:#af6152;"></path></g><path d="M200.74,312.66c-.08,.19-.16,.4-.24,.6,1.55,2.52,3.77,4.11,6.34,4.63l.37-.9s2.18-6.02-.64-8.92c-2.94,.22-4.37,.86-5.83,4.59Z" style="fill:#c8856a;"></path></g></g><path d="M209.23,328.99l-1.93,.75c-.12,.05-.24,.01-.31-.09l-1.14-1.61c-.18-.26-.57-.03-.65,.38l-.54,2.58c-.03,.16-.12,.31-.24,.4l-1.83,1.42c-.29,.23-.35,.75-.09,.88l1.59,.85c.1,.05,.16,.18,.16,.34v2.49c.01,.4,.36,.49,.6,.17l1.52-2.06c.1-.13,.22-.2,.34-.2l1.84,.12c.29,.02,.56-.44,.46-.78l-.65-2.12c-.04-.13-.02-.3,.05-.46l1.13-2.42c.18-.38,0-.77-.31-.65Zm10.94-6.3l-1.93,.75c-.12,.05-.24,.01-.31-.09l-1.14-1.61c-.18-.26-.57-.03-.65,.38l-.54,2.58c-.03,.16-.12,.31-.24,.4l-1.83,1.42c-.29,.23-.35,.75-.09,.88l1.59,.85c.1,.05,.16,.18,.16,.34v2.49c.01,.4,.36,.49,.6,.17l1.52-2.06c.1-.13,.22-.2,.34-.2l1.84,.12c.29,.02,.56-.44,.46-.78l-.65-2.12c-.04-.13-.02-.3,.05-.46l1.13-2.42c.18-.38,0-.77-.31-.65Zm10.94-6.3l-1.93,.75c-.12,.05-.24,.01-.31-.09l-1.14-1.61c-.18-.26-.57-.03-.65,.38l-.54,2.58c-.03,.16-.12,.31-.24,.4l-1.83,1.42c-.29,.23-.35,.75-.09,.88l1.59,.85c.1,.05,.16,.18,.16,.34v2.49c.01,.4,.36,.49,.6,.17l1.52-2.06c.1-.13,.22-.2,.34-.2l1.84,.12c.29,.02,.56-.44,.46-.78l-.65-2.12c-.04-.13-.02-.3,.05-.46l1.13-2.42c.18-.38,0-.77-.31-.65Z" style="fill:#BA68C8; opacity:.5;"></path><g><path d="M329.93,240.12l-2.9-20.91c-.31-2.19-2.01-3.14-3.79-2.11l-85.46,49.36c-1.78,1.03-2.97,3.64-2.66,5.83l2.9,20.91c.31,2.19,2.01,3.14,3.79,2.11l11.9-6.87-.46,8.12,7.32-12.08,66.7-38.53c1.78-1.03,2.97-3.64,2.66-5.83Z" style="fill:#BA68C8;"></path><path d="M329.93,240.12l-2.9-20.91c-.31-2.19-2.01-3.14-3.79-2.11l-85.46,49.36c-1.78,1.03-2.97,3.64-2.66,5.83l2.9,20.91c.31,2.19,2.01,3.14,3.79,2.11l11.9-6.87-.46,8.12,7.32-12.08,66.7-38.53c1.78-1.03,2.97-3.64,2.66-5.83Z" style="fill:#fff; opacity:.7;"></path><path d="M325.46,235.63c-.05-.43-.3-.61-.61-.44l-83.45,48.18c-.41,.23-.72,.99-.66,1.56,.05,.43,.3,.61,.61,.44l83.45-48.18c.41-.23,.72-.99,.66-1.56Zm-62.19,40.58c-.05-.43-.3-.61-.61-.44l-20.66,11.95c-.41,.23-.72,.99-.66,1.56,.05,.43,.3,.61,.61,.44l20.66-11.95c.41-.23,.72-.99,.66-1.56Zm60.4-53.62c-.05-.43-.3-.61-.61-.44l-83.45,48.18c-.41,.23-.72,.99-.66,1.56,.05,.43,.3,.61,.61,.44l83.45-48.18c.41-.23,.72-.99,.66-1.56Zm1.19,8.7c-.05-.43-.3-.61-.61-.44l-83.45,48.18c-.41,.23-.72,.99-.66,1.56,.05,.43,.3,.61,.61,.44l83.45-48.18c.41-.23,.72-.99,.66-1.56Zm-.6-4.35c-.05-.43-.3-.61-.61-.44l-83.45,48.18c-.41,.23-.72,.99-.66,1.56,.05,.43,.3,.61,.61,.44l83.45-48.18c.41-.23,.72-.99,.66-1.56Z" style="fill:#fff;"></path></g></g></g></g><g id="Search_Bar"><g id="Search"><g><path d="M259.64,25.43c-1.04-.6-2.48-.52-4.07,.4L127.09,100.01c-3.18,1.84-5.76,6.3-5.76,9.97v12.7c0,1.84,.64,3.13,1.69,3.73,1.04,.6,4.59,2.65,5.64,3.25,1.04,.6,2.48,.51,4.07-.4L261.2,55.09c3.18-1.84,5.76-6.3,5.76-9.97v-12.7c0-1.83-.64-3.12-1.68-3.72-1.04-.61-4.6-2.65-5.64-3.25Z" style="fill:#BA68C8;"></path><path d="M259.64,25.43c-1.04-.6-2.48-.52-4.07,.4L127.09,100.01c-3.18,1.84-5.76,6.3-5.76,9.97v12.7c0,1.84,.64,3.13,1.69,3.73,1.04,.6,4.59,2.65,5.64,3.25,1.04,.6,2.48,.51,4.07-.4L261.2,55.09c3.18-1.84,5.76-6.3,5.76-9.97v-12.7c0-1.83-.64-3.12-1.68-3.72-1.04-.61-4.6-2.65-5.64-3.25Z" style="fill:#fff; opacity:.35;"></path><path d="M121.33,109.98v12.7c0,1.84,.64,3.13,1.69,3.73,1.04,.6,4.59,2.65,5.64,3.25,1,.58,2.37,.51,3.88-.31v-19.5l-9.52-5.55c-1.04,1.8-1.68,3.84-1.68,5.67Z" style="fill:#BA68C8;"></path><path d="M266.96,32.41c0-3.67-2.58-5.16-5.76-3.32L132.72,103.26c-3.18,1.84-5.76,6.3-5.76,9.97v12.7c0,3.67,2.58,5.16,5.76,3.32L261.2,55.09c3.18-1.84,5.76-6.3,5.76-9.97v-12.7Z" style="fill:#BA68C8;"></path><path d="M266.96,32.41c0-3.67-2.58-5.16-5.76-3.32L132.72,103.26c-3.18,1.84-5.76,6.3-5.76,9.97v12.7c0,3.67,2.58,5.16,5.76,3.32L261.2,55.09c3.18-1.84,5.76-6.3,5.76-9.97v-12.7Z" style="fill:#fff; opacity:.15;"></path><path d="M133.88,106.34c-2.13,1.23-3.88,4.26-3.88,6.72v10.86c0,1.76,1.24,2.48,2.77,1.6l110.76-63.99v-18.54l-109.64,63.35Z" style="fill:#fafafa;"></path></g><path d="M262.5,48.66l-2.31-1.74c-.3-.23-.74-.09-1.12,.3l.04-.08-.81-.61c.63-1.43,1.01-2.98,1.01-4.44,0-3.44-2.1-5.02-4.68-3.53-2.58,1.49-4.67,5.5-4.67,8.93s2.1,5.02,4.67,3.53c1.09-.63,2.1-1.72,2.89-3.02l.81,.61,.04-.08c-.13,.58-.04,1.11,.26,1.34l2.31,1.74c.21,.16,.49,.14,.77-.02,.28-.16,.56-.46,.77-.87,.43-.81,.43-1.73,0-2.06Zm-7.86,.41c-1.78,1.03-3.22-.07-3.22-2.44s1.44-5.13,3.22-6.16c1.78-1.03,3.22,.07,3.22,2.44s-1.45,5.13-3.22,6.16Z" style="fill:#fff;"></path><g><path d="M133.6,114.9c0-.54,.07-1.09,.18-1.63,.12-.54,.28-1.05,.5-1.53,.22-.48,.49-.91,.8-1.3,.32-.39,.68-.71,1.1-.94,.41-.24,.78-.35,1.1-.32,.32,.02,.59,.15,.81,.37,.22,.22,.39,.54,.5,.95,.12,.41,.18,.88,.18,1.41,.02,.85,.02,1.7,0,2.57-.01,.55-.08,1.09-.19,1.63-.12,.54-.28,1.05-.5,1.54-.22,.48-.49,.91-.8,1.3s-.68,.7-1.09,.93c-.41,.24-.78,.35-1.09,.33-.32-.02-.58-.14-.8-.37-.22-.23-.38-.55-.5-.96-.12-.41-.18-.88-.19-1.41-.02-.85-.02-1.7,0-2.57Zm4.28-2.4c-.01-.45-.06-.81-.14-1.1-.09-.29-.2-.5-.35-.63-.15-.14-.33-.2-.53-.19-.2,0-.43,.08-.67,.22-.24,.14-.47,.32-.67,.55-.2,.23-.38,.5-.53,.8-.15,.31-.27,.65-.36,1.04-.09,.39-.13,.81-.14,1.26-.01,.44-.02,.85-.02,1.22s0,.77,.02,1.2c0,.45,.05,.81,.14,1.1,.09,.29,.21,.5,.36,.63,.15,.13,.33,.2,.53,.19,.2,0,.43-.08,.67-.22,.24-.14,.47-.33,.67-.55,.2-.23,.38-.5,.53-.8,.15-.31,.27-.65,.35-1.04,.08-.38,.13-.81,.14-1.26,.01-.44,.02-.85,.02-1.22s0-.77-.02-1.2Z" style="fill:#455a64;"></path><path d="M144.44,114.97c-.09,.05-.16,.05-.22-.01-.06-.06-.11-.13-.15-.21l-3.04-5.29v7.09c0,.11-.02,.21-.07,.32-.05,.11-.11,.18-.18,.22l-.38,.22c-.07,.04-.13,.03-.18-.01-.05-.05-.08-.12-.08-.23v-9.31c0-.11,.03-.21,.08-.32s.11-.18,.18-.22l.33-.19c.09-.05,.16-.05,.22,.01,.06,.06,.11,.13,.15,.21l3.04,5.29v-7.09c0-.11,.03-.21,.08-.32,.05-.11,.11-.18,.18-.22l.38-.22c.07-.04,.13-.03,.18,.01,.05,.05,.08,.13,.08,.23v9.31c0,.11-.03,.21-.08,.32-.05,.11-.11,.18-.18,.22l-.33,.19Z" style="fill:#455a64;"></path><path d="M150.7,110.06c.07-.04,.13-.03,.18,.01,.05,.05,.08,.13,.08,.23v.52c0,.11-.03,.21-.08,.32s-.11,.18-.18,.22l-3.81,2.2c-.07,.04-.13,.04-.18-.01s-.08-.12-.08-.23v-9.31c0-.11,.03-.21,.08-.32,.05-.1,.11-.18,.18-.22l.38-.22c.07-.04,.13-.03,.18,.01,.05,.05,.07,.13,.07,.23v8.41l3.18-1.83Z" style="fill:#455a64;"></path><path d="M152.18,110.5c-.07,.04-.13,.04-.18-.01-.05-.05-.08-.12-.08-.23v-9.31c0-.11,.03-.21,.08-.32,.05-.1,.11-.18,.18-.22l.38-.22c.07-.04,.13-.03,.18,.01,.05,.05,.07,.13,.07,.23v9.31c0,.11-.02,.21-.07,.32-.05,.11-.11,.18-.18,.22l-.38,.22Z" style="fill:#455a64;"></path><path d="M158.74,106.71c-.09,.05-.16,.05-.22-.01-.06-.06-.11-.12-.15-.21l-3.04-5.29v7.09c0,.11-.03,.21-.07,.32-.05,.11-.11,.18-.18,.22l-.38,.22c-.07,.04-.13,.04-.18-.01-.05-.05-.08-.12-.08-.23v-9.31c0-.11,.02-.21,.08-.32,.05-.1,.11-.18,.18-.22l.33-.19c.09-.05,.16-.05,.22,.01,.06,.06,.11,.13,.15,.21l3.04,5.29v-7.09c0-.11,.03-.21,.08-.32,.05-.1,.11-.18,.18-.22l.38-.22c.07-.04,.13-.03,.18,.01,.05,.05,.08,.13,.08,.23v9.31c0,.11-.02,.21-.08,.32-.05,.11-.11,.18-.18,.22l-.33,.19Z" style="fill:#455a64;"></path><path d="M164.97,101.82c.07-.04,.13-.04,.18,.01,.05,.05,.07,.12,.07,.23v.52c0,.11-.02,.21-.07,.32-.05,.11-.11,.18-.18,.22l-3.78,2.18c-.07,.04-.13,.03-.18-.01-.05-.05-.08-.12-.08-.23v-9.31c0-.11,.02-.21,.08-.32,.05-.11,.11-.18,.18-.22l3.71-2.14c.07-.04,.13-.03,.18,.01,.05,.05,.07,.13,.07,.23v.52c0,.11-.03,.21-.07,.32-.05,.11-.11,.18-.18,.22l-3.07,1.77v3.04l2.87-1.65c.07-.04,.13-.03,.18,.01,.05,.05,.08,.13,.08,.23v.52c0,.11-.02,.21-.08,.32-.05,.11-.11,.18-.18,.22l-2.87,1.65v3.16l3.15-1.81Z" style="fill:#455a64;"></path><path d="M172.73,88.55c.07-.04,.13-.04,.18,.01,.05,.05,.08,.12,.08,.23v.52c0,.11-.02,.21-.08,.32-.05,.11-.11,.18-.18,.22l-3.08,1.78v3.33l2.89-1.67c.07-.04,.13-.03,.18,.01,.05,.05,.08,.13,.08,.23v.52c0,.11-.02,.21-.08,.32-.05,.11-.11,.18-.18,.22l-2.89,1.67v3.78c0,.11-.03,.21-.08,.32-.05,.11-.11,.18-.18,.22l-.39,.22c-.07,.04-.13,.03-.18-.01-.05-.05-.08-.12-.08-.23v-9.31c0-.11,.02-.21,.08-.32,.05-.11,.11-.18,.18-.22l3.72-2.15Z" style="fill:#455a64;"></path><path d="M173.85,91.66c0-.54,.07-1.09,.18-1.63,.11-.54,.28-1.05,.5-1.53,.22-.48,.49-.91,.81-1.3,.32-.39,.68-.71,1.1-.94,.41-.24,.78-.35,1.1-.32,.32,.02,.59,.15,.8,.37s.39,.54,.5,.95c.12,.41,.18,.88,.18,1.41,.02,.85,.02,1.7,0,2.57-.01,.55-.08,1.09-.19,1.63-.12,.54-.28,1.05-.5,1.54-.22,.48-.48,.91-.8,1.3-.32,.38-.68,.69-1.09,.93-.41,.24-.78,.35-1.09,.33-.32-.02-.58-.14-.8-.37-.22-.23-.39-.55-.5-.96-.11-.41-.18-.88-.19-1.41-.02-.85-.02-1.7,0-2.57Zm4.28-2.4c-.01-.45-.06-.81-.15-1.1-.08-.29-.2-.5-.35-.63-.15-.14-.33-.2-.53-.19-.2,0-.43,.08-.67,.22-.24,.14-.47,.32-.67,.55s-.38,.5-.53,.8c-.15,.31-.27,.65-.36,1.04-.09,.39-.14,.81-.14,1.26-.01,.44-.02,.85-.02,1.22s0,.77,.02,1.2c0,.45,.05,.81,.14,1.1,.09,.29,.21,.5,.36,.63,.15,.13,.33,.2,.53,.19s.43-.08,.67-.22c.24-.14,.47-.33,.67-.55,.2-.23,.38-.5,.53-.8,.15-.31,.27-.65,.35-1.04,.09-.38,.13-.81,.15-1.26,.01-.44,.02-.85,.02-1.22s0-.77-.02-1.2Z" style="fill:#455a64;"></path><path d="M182.91,82.67c.3-.18,.59-.29,.87-.33,.27-.04,.51,0,.72,.12,.21,.12,.37,.33,.49,.64,.12,.3,.18,.72,.18,1.25,0,.78-.13,1.47-.38,2.08-.25,.61-.58,1.12-.97,1.54l1.41,2.98s.03,.09,.03,.14c0,.09-.02,.17-.06,.26-.04,.09-.09,.15-.14,.18l-.4,.23c-.13,.07-.22,.08-.28,.01-.06-.06-.1-.12-.13-.17l-1.36-2.89-1.61,.93v3.68c0,.11-.03,.21-.08,.32-.05,.11-.11,.18-.18,.22l-.38,.22c-.07,.04-.13,.03-.18-.01-.05-.05-.08-.12-.08-.23v-9.31c0-.11,.02-.21,.08-.32,.05-.11,.11-.18,.18-.22l2.27-1.31Zm-1.63,5.67l1.58-.91c.45-.26,.8-.6,1.04-1.01,.25-.42,.37-.93,.37-1.55s-.12-.98-.37-1.09c-.25-.11-.59-.04-1.04,.22l-1.58,.91v3.43Z" style="fill:#455a64;"></path><path d="M191.22,77.87c.07-.04,.13-.03,.18,.01,.05,.05,.07,.13,.07,.23v5.77c0,.6-.05,1.17-.14,1.72-.1,.55-.25,1.07-.45,1.55-.2,.48-.46,.91-.78,1.3-.32,.39-.7,.71-1.14,.96-.45,.26-.83,.38-1.15,.36-.32-.02-.58-.15-.78-.4-.2-.25-.35-.59-.44-1.03-.09-.44-.14-.96-.14-1.56v-5.77c0-.11,.02-.21,.08-.32,.05-.11,.11-.18,.18-.22l.38-.22c.07-.04,.13-.04,.18,.01,.05,.05,.08,.12,.08,.23v5.84c0,.94,.14,1.56,.43,1.85,.29,.29,.69,.29,1.2,0,.51-.3,.91-.76,1.2-1.38s.43-1.41,.43-2.35v-5.84c0-.11,.02-.21,.08-.32,.05-.1,.11-.18,.18-.22l.37-.22Z" style="fill:#455a64;"></path><path d="M195.93,81.25l1.89-6.73c.04-.14,.09-.27,.15-.41,.07-.13,.15-.23,.26-.29l.36-.21c.07-.04,.13-.04,.18,.01,.05,.05,.08,.12,.08,.23v9.31c0,.11-.03,.21-.08,.32s-.11,.18-.18,.22l-.38,.22c-.07,.04-.13,.03-.18-.01-.05-.05-.07-.12-.07-.23v-6.83l-1.46,5.18c-.05,.17-.1,.32-.16,.43-.06,.11-.13,.2-.22,.25l-.36,.21c-.09,.05-.17,.06-.23,0-.06-.05-.11-.13-.16-.25l-1.46-3.5v6.83c0,.11-.03,.21-.08,.32s-.11,.18-.18,.22l-.38,.22c-.07,.04-.13,.03-.18-.01-.05-.05-.08-.12-.08-.23v-9.31c0-.11,.03-.21,.08-.32,.05-.11,.11-.18,.18-.22l.36-.21c.11-.06,.19-.06,.26,0,.07,.06,.12,.13,.15,.23l1.89,4.54Z" style="fill:#455a64;"></path><path d="M204.76,69.91c.38-.22,.72-.32,1.01-.31s.54,.1,.74,.24c.2,.15,.36,.34,.46,.58,.11,.24,.16,.48,.17,.72,0,.08-.01,.17-.05,.26-.04,.09-.09,.15-.15,.18l-.38,.22c-.07,.04-.12,.05-.16,.04-.04-.01-.08-.08-.13-.19-.03-.08-.08-.17-.15-.28-.07-.11-.17-.2-.29-.26-.12-.07-.27-.1-.45-.1s-.38,.07-.61,.2c-.17,.1-.34,.23-.5,.38-.16,.15-.3,.33-.43,.53-.12,.2-.22,.41-.3,.64-.08,.23-.11,.47-.11,.72s.04,.44,.11,.57c.07,.13,.19,.22,.35,.27,.16,.05,.36,.06,.6,.03,.24-.03,.54-.07,.89-.12,.36-.06,.66-.08,.9-.05,.25,.03,.45,.11,.6,.24s.27,.31,.34,.55c.07,.24,.11,.54,.11,.9,0,.43-.06,.86-.18,1.29-.12,.43-.29,.84-.51,1.23-.22,.39-.48,.74-.79,1.06-.31,.32-.65,.6-1.03,.81-.36,.21-.7,.32-1,.33-.31,.01-.57-.05-.79-.18-.22-.13-.39-.32-.52-.56-.13-.24-.2-.52-.2-.82,0-.09,.02-.17,.06-.26,.04-.09,.09-.14,.14-.18l.38-.22c.06-.04,.12-.05,.16-.04,.05,.01,.09,.07,.13,.19s.1,.23,.17,.34c.08,.11,.18,.2,.31,.26,.13,.06,.29,.09,.48,.08,.19-.01,.41-.09,.66-.24,.22-.13,.43-.28,.62-.48,.2-.19,.37-.4,.52-.63,.15-.23,.27-.47,.36-.73,.09-.25,.13-.5,.13-.75s-.05-.43-.15-.55c-.1-.12-.24-.2-.43-.24-.19-.03-.42-.03-.69,0-.27,.04-.58,.09-.92,.15-.31,.06-.58,.06-.8,0-.22-.05-.4-.15-.53-.3-.14-.15-.24-.35-.29-.59-.06-.24-.09-.53-.09-.86,0-.35,.05-.73,.14-1.12s.23-.77,.42-1.13c.19-.37,.42-.71,.69-1.03,.28-.32,.6-.59,.98-.8Z" style="fill:#455a64;"></path><path d="M212.57,74.34c.07-.04,.13-.04,.18,.01,.05,.05,.08,.12,.08,.23v.52c0,.11-.03,.21-.08,.32-.05,.11-.11,.18-.18,.22l-3.78,2.18c-.07,.04-.13,.03-.18-.01-.05-.05-.08-.13-.08-.23v-9.31c0-.11,.02-.21,.08-.32,.05-.11,.11-.18,.18-.22l3.71-2.14c.07-.04,.13-.04,.18,.01,.05,.05,.07,.13,.07,.23v.52c0,.11-.03,.21-.07,.32-.05,.11-.11,.18-.18,.22l-3.07,1.77v3.04l2.87-1.65c.07-.04,.13-.04,.18,.01,.05,.05,.08,.12,.08,.23v.52c0,.11-.02,.21-.08,.32-.05,.11-.11,.18-.18,.22l-2.87,1.65v3.16l3.15-1.82Z" style="fill:#455a64;"></path><path d="M218.07,70.18l-3.25,1.88-.49,2.2c-.02,.09-.05,.19-.1,.3-.05,.11-.14,.2-.26,.27l-.35,.2c-.06,.03-.1,.03-.15-.01-.04-.04-.06-.1-.06-.19,0-.05,.01-.12,.04-.22l2.29-10.42c.03-.12,.08-.26,.14-.4s.16-.25,.28-.32l.56-.33c.12-.07,.22-.07,.28,0,.06,.07,.11,.15,.14,.24l2.28,7.78c.02,.07,.04,.13,.04,.18,0,.09-.02,.17-.06,.26-.04,.09-.09,.15-.15,.18l-.35,.2c-.13,.07-.21,.08-.26,.03-.05-.05-.08-.11-.1-.18l-.49-1.64Zm-2.92,.39l2.59-1.5-1.29-4.4-1.3,5.9Z" style="fill:#455a64;"></path><path d="M222.96,59.54c.3-.18,.59-.29,.87-.33,.27-.04,.51,0,.72,.12,.21,.12,.37,.34,.49,.64,.12,.3,.18,.72,.18,1.25,0,.78-.13,1.47-.38,2.08-.25,.61-.58,1.12-.97,1.54l1.41,2.98s.03,.1,.03,.14c0,.09-.02,.17-.06,.26-.04,.09-.09,.14-.14,.18l-.4,.23c-.13,.07-.22,.08-.28,.02-.06-.06-.1-.12-.13-.17l-1.36-2.89-1.61,.93v3.68c0,.11-.03,.21-.08,.31-.05,.11-.11,.18-.18,.22l-.38,.22c-.07,.04-.13,.03-.18-.01-.05-.05-.08-.13-.08-.23v-9.31c0-.11,.03-.21,.08-.32,.05-.11,.11-.18,.18-.22l2.27-1.31Zm-1.63,5.67l1.58-.91c.45-.26,.8-.6,1.04-1.02,.25-.41,.37-.93,.37-1.55s-.12-.98-.37-1.09c-.25-.11-.59-.04-1.04,.22l-1.58,.91v3.43Z" style="fill:#455a64;"></path><path d="M227.18,60.94c-.01,.44-.02,.85-.02,1.22s0,.77,.02,1.2c.02,.79,.18,1.34,.47,1.67,.29,.32,.72,.33,1.28,0,.3-.17,.55-.38,.76-.61,.21-.24,.38-.48,.51-.74,.13-.26,.24-.53,.31-.8,.07-.28,.13-.55,.16-.81,.01-.11,.04-.21,.09-.29,.05-.08,.1-.14,.15-.17l.43-.25c.06-.03,.1-.03,.15,.01,.04,.04,.06,.1,.06,.19,0,.32-.06,.7-.16,1.13-.1,.43-.25,.87-.46,1.33-.21,.45-.48,.88-.81,1.29-.33,.41-.73,.75-1.19,1.02-.41,.23-.77,.35-1.09,.33-.32-.01-.59-.13-.82-.34-.23-.21-.4-.52-.53-.93-.12-.4-.19-.89-.21-1.44-.02-.85-.02-1.7,0-2.57,.01-.57,.08-1.12,.21-1.68s.3-1.07,.53-1.55c.23-.48,.5-.9,.82-1.29,.32-.38,.68-.69,1.09-.92,.47-.27,.87-.39,1.19-.36,.33,.03,.6,.15,.81,.36,.21,.21,.36,.48,.46,.79,.1,.32,.15,.63,.16,.95,0,.09-.02,.17-.06,.26-.04,.09-.09,.15-.15,.18l-.43,.25s-.1,.03-.15,0c-.05-.02-.08-.09-.09-.18-.04-.22-.09-.43-.16-.62-.07-.19-.17-.34-.31-.45-.13-.11-.3-.16-.51-.15-.21,0-.46,.09-.76,.26-.56,.32-.98,.81-1.28,1.48-.3,.67-.46,1.4-.47,2.21Z" style="fill:#455a64;"></path><path d="M237.61,51.09c.07-.04,.13-.04,.18,.01,.05,.05,.08,.13,.08,.23v9.31c0,.11-.03,.21-.08,.32-.05,.11-.11,.18-.18,.22l-.38,.22c-.07,.04-.13,.03-.18-.01-.05-.05-.08-.12-.08-.23v-4.07l-3.3,1.9v4.06c0,.11-.03,.21-.08,.32-.05,.11-.11,.18-.18,.22l-.38,.22c-.07,.04-.13,.04-.18,0-.05-.04-.08-.12-.08-.24v-9.31c0-.11,.03-.21,.08-.32,.05-.11,.11-.18,.18-.22l.38-.22c.07-.04,.13-.04,.18,.01,.05,.05,.08,.12,.08,.23v3.95l3.3-1.9v-3.95c0-.11,.02-.21,.08-.32,.05-.11,.11-.18,.18-.22l.38-.22Z" style="fill:#455a64;"></path></g></g></g><g id="Question_Mark"><g id="Question_Mark-2"><path d="M459.53,114.31c-1.58-5.66-3.81-10.99-6.7-16.01-2.88-5.01-6.34-9.59-10.38-13.73-4.04-4.14-8.52-7.63-13.43-10.47-3.62-2.09-6.98-3.59-10.08-4.52-3.11-.93-5.99-1.4-8.64-1.43-2.65-.02-5.12,.32-7.41,1.03-2.29,.71-4.39,1.64-6.31,2.79l-12.56,7.25,5.51,14.82c.9,2.78,2.37,4.76,4.41,5.93,.85,.49,1.81,.57,2.88,.25,1.08-.32,2.39-.62,3.94-.89,1.55-.27,3.44-.23,5.68,.11,2.23,.35,4.96,1.45,8.18,3.31,2.2,1.27,4.25,2.87,6.14,4.79,1.89,1.92,3.52,4.05,4.87,6.37,1.36,2.33,2.41,4.78,3.17,7.37,.77,2.59,1.14,5.23,1.14,7.95,0,4.22-.66,7.47-1.99,9.75-.52,.89-1.1,1.69-1.73,2.44-1.12,.51-2.18,1.07-3.17,1.7-1.23,.78-10.72,6.09-12.56,7.25-1.84,1.16-3.31,2.76-4.41,4.8-1.1,2.04-1.48,4.92-1.14,8.66l1.44,19.25,14.32,8.27,12.56-7.25,1.95-15.37c.16-1.26,.52-2.32,1.05-3.22,.14-.06,.28-.12,.42-.18,.69-.3,1.36-.65,2.01-1.05,1.45-.89,11.65-6.72,12.18-7.03,1.6-.92,3.11-2.14,4.51-3.65,1.86-2.01,3.42-4.75,4.66-8.21,1.24-3.46,1.86-8.06,1.86-13.78s-.79-11.64-2.37-17.3Z" style="fill:#BA68C8;"></path><path d="M459.53,114.31c-1.58-5.66-3.81-10.99-6.7-16.01-2.88-5.01-6.34-9.59-10.38-13.73-4.04-4.14-8.52-7.63-13.43-10.47-3.62-2.09-6.98-3.59-10.08-4.52-3.11-.93-5.99-1.4-8.64-1.43-2.65-.02-5.12,.32-7.41,1.03-2.29,.71-4.39,1.64-6.31,2.79l-12.56,7.25,5.51,14.82c.9,2.78,2.37,4.76,4.41,5.93,.85,.49,1.81,.57,2.88,.25,1.08-.32,2.39-.62,3.94-.89,1.55-.27,3.44-.23,5.68,.11,2.23,.35,4.96,1.45,8.18,3.31,2.2,1.27,4.25,2.87,6.14,4.79,1.89,1.92,3.52,4.05,4.87,6.37,1.36,2.33,2.41,4.78,3.17,7.37,.77,2.59,1.14,5.23,1.14,7.95,0,4.22-.66,7.47-1.99,9.75-.52,.89-1.1,1.69-1.73,2.44-1.12,.51-2.18,1.07-3.17,1.7-1.23,.78-10.72,6.09-12.56,7.25-1.84,1.16-3.31,2.76-4.41,4.8-1.1,2.04-1.48,4.92-1.14,8.66l1.44,19.25,14.32,8.27,12.56-7.25,1.95-15.37c.16-1.26,.52-2.32,1.05-3.22,.14-.06,.28-.12,.42-.18,.69-.3,1.36-.65,2.01-1.05,1.45-.89,11.65-6.72,12.18-7.03,1.6-.92,3.11-2.14,4.51-3.65,1.86-2.01,3.42-4.75,4.66-8.21,1.24-3.46,1.86-8.06,1.86-13.78s-.79-11.64-2.37-17.3Z" style="fill:#fff; opacity:.4;"></path><g><path d="M407,182.7l-1.41-18.91c-.33-3.6,.03-6.39,1.07-8.31,1.04-1.93,2.45-3.47,4.19-4.56,1.78-1.13,3.8-2.08,6.01-2.83,2.31-.79,4.5-1.86,6.5-3.18,2.05-1.35,3.79-3.24,5.16-5.59,1.38-2.38,2.08-5.76,2.08-10.08,0-2.77-.39-5.5-1.17-8.13-.77-2.63-1.86-5.15-3.24-7.51-1.38-2.36-3.05-4.55-4.97-6.5-1.92-1.95-4.03-3.6-6.28-4.89-3.27-1.89-6.1-3.03-8.4-3.39-1.29-.2-2.48-.3-3.54-.3-.84,0-1.63,.06-2.34,.19-1.55,.27-2.9,.57-4.01,.9-.37,.11-.72,.17-1.04,.17-.48,0-.92-.12-1.34-.36-1.88-1.09-3.27-2.97-4.12-5.58l-5.33-14.34c1.74-.99,3.66-1.82,5.72-2.47,2.13-.66,4.48-1,6.97-1h.25c2.59,.03,5.44,.5,8.47,1.41,3.05,.91,6.39,2.41,9.95,4.46,4.84,2.8,9.32,6.28,13.29,10.36,3.98,4.08,7.44,8.66,10.28,13.6,2.84,4.94,5.07,10.28,6.63,15.86,1.56,5.58,2.35,11.34,2.35,17.12s-.61,10.19-1.82,13.57c-1.21,3.37-2.73,6.06-4.53,7.99-1.8,1.94-3.79,3.39-5.93,4.32-2.23,.97-4.33,1.89-6.31,2.74-2.01,.87-3.78,1.87-5.26,2.99-1.57,1.19-2.53,3.02-2.83,5.43l-1.83,14.42-13.2-7.62Z" style="fill:#fafafa;"></path><path d="M397.49,76.67h.24c2.53,.03,5.32,.49,8.29,1.38,3,.9,6.3,2.38,9.81,4.4,4.79,2.77,9.22,6.22,13.16,10.25,3.95,4.05,7.37,8.58,10.19,13.48,2.81,4.9,5.03,10.18,6.57,15.72,1.54,5.52,2.32,11.23,2.32,16.95s-.6,10.05-1.79,13.35c-1.18,3.29-2.66,5.9-4.39,7.78-1.74,1.87-3.66,3.27-5.72,4.17-2.23,.97-4.33,1.89-6.31,2.74-2.06,.89-3.88,1.92-5.39,3.07-1.72,1.3-2.75,3.27-3.08,5.86l-1.71,13.47-12.08-6.97-1.39-18.59c-.31-3.46,.02-6.13,1-7.94,.99-1.84,2.33-3.29,3.97-4.33,1.73-1.1,3.71-2.03,5.87-2.76,2.36-.8,4.6-1.9,6.65-3.25,2.14-1.41,3.94-3.36,5.36-5.81,1.45-2.51,2.16-5.91,2.16-10.39,0-2.83-.4-5.62-1.2-8.31-.79-2.68-1.9-5.25-3.3-7.65-1.4-2.4-3.11-4.63-5.07-6.63-1.96-1.99-4.12-3.67-6.41-5-3.34-1.93-6.24-3.09-8.62-3.46-1.32-.2-2.54-.31-3.64-.31-.88,0-1.71,.07-2.45,.2-1.58,.27-2.95,.58-4.09,.92-.3,.09-.59,.14-.85,.14-.37,0-.7-.09-1.02-.27-1.77-1.02-3.02-2.73-3.83-5.22v-.03l-.02-.02-5.13-13.8c1.57-.86,3.29-1.58,5.12-2.15,2.07-.65,4.36-.97,6.78-.97m0-1.28c-2.56,0-4.95,.34-7.16,1.03-2.29,.71-4.39,1.64-6.31,2.79l5.51,14.82c.9,2.78,2.37,4.76,4.41,5.93,.51,.3,1.06,.44,1.66,.44,.39,0,.8-.06,1.22-.19,1.08-.32,2.39-.62,3.94-.89,.68-.12,1.42-.18,2.23-.18,1.04,0,2.19,.1,3.45,.29,2.23,.35,4.96,1.45,8.18,3.31,2.2,1.27,4.25,2.87,6.14,4.79,1.89,1.92,3.52,4.05,4.87,6.37,1.36,2.33,2.41,4.78,3.17,7.37,.77,2.59,1.14,5.23,1.14,7.95,0,4.22-.66,7.47-1.99,9.75-1.33,2.28-2.98,4.08-4.96,5.38-1.98,1.31-4.1,2.34-6.35,3.11-2.26,.77-4.31,1.73-6.14,2.89-1.84,1.16-3.31,2.76-4.41,4.8-1.1,2.04-1.48,4.92-1.14,8.66l1.44,19.25,14.32,8.27,1.95-15.37c.28-2.24,1.14-3.92,2.58-5,1.44-1.09,3.15-2.06,5.13-2.91,1.98-.85,4.08-1.77,6.31-2.74,2.23-.97,4.28-2.46,6.15-4.47,1.86-2.01,3.42-4.75,4.66-8.21,1.24-3.46,1.86-8.06,1.86-13.78s-.79-11.64-2.37-17.3c-1.58-5.66-3.81-10.99-6.7-16.01-2.88-5.01-6.34-9.59-10.38-13.73-4.04-4.14-8.52-7.63-13.43-10.47-3.62-2.09-6.98-3.59-10.08-4.52-3.11-.93-5.99-1.4-8.64-1.43-.08,0-.17,0-.25,0h0Z" style="fill:#BA68C8;"></path></g><path d="M410.23,225.3c3,1.79,6.08,1.84,8.52,.46,1.33-.75,6.47-3.62,7.82-4.37,2.08-1.16,3.7-3.35,4.43-6.38,1.59-6.57-1.61-14.59-7.16-17.9-2.98-1.78-6.02-1.84-8.45-.5-1.36,.75-6.52,3.65-7.86,4.39-2.09,1.16-3.72,3.36-4.46,6.4-1.59,6.57,1.61,14.59,7.16,17.9Z" style="fill:#BA68C8;"></path><path d="M410.23,225.3c3,1.79,6.08,1.84,8.52,.46,1.33-.75,6.47-3.62,7.82-4.37,2.08-1.16,3.7-3.35,4.43-6.38,1.59-6.57-1.61-14.59-7.16-17.9-2.98-1.78-6.02-1.84-8.45-.5-1.36,.75-6.52,3.65-7.86,4.39-2.09,1.16-3.72,3.36-4.46,6.4-1.59,6.57,1.61,14.59,7.16,17.9Z" style="fill:#fff; opacity:.4;"></path><g><path d="M415.05,226.14c-1.5,0-3.03-.45-4.52-1.34-5.34-3.18-8.43-10.93-6.9-17.26,1.03-4.25,3.92-6.89,7.55-6.89,1.5,0,3.03,.45,4.52,1.34,5.34,3.18,8.43,10.93,6.9,17.26-1.03,4.25-3.92,6.89-7.55,6.89Z" style="fill:#fafafa;"></path><path d="M411.18,201.23h0c1.4,0,2.82,.42,4.22,1.26,5.13,3.06,8.11,10.52,6.63,16.62-.96,3.98-3.64,6.44-6.98,6.44-1.4,0-2.82-.42-4.22-1.26-5.13-3.06-8.11-10.52-6.63-16.62,.96-3.98,3.64-6.44,6.98-6.44m0-1.17c-3.76,0-6.99,2.69-8.11,7.34-1.59,6.57,1.61,14.59,7.16,17.9,1.62,.97,3.27,1.43,4.82,1.43,3.76,0,6.99-2.68,8.11-7.34,1.59-6.57-1.61-14.59-7.16-17.9-1.62-.97-3.27-1.43-4.82-1.43h0Z" style="fill:#BA68C8;"></path></g></g></g><g id="Speech_Bubble"><g id="Speech_Bubble-2"><g id="Bubble"><path d="M83.02,237.33c-4.16-2.36-9.89-2-16.21,1.65-12.72,7.35-23.04,25.21-23.04,39.9,0,7.34,2.58,12.49,6.74,14.9,1.73,1,6.14,3.53,7.87,4.53,4.17,2.4,9.92,2.05,16.27-1.62,12.72-7.35,23.04-25.21,23.04-39.9,0-7.32-2.57-12.47-6.71-14.89-1.74-1.01-6.19-3.58-7.96-4.58Z" style="fill:#BA68C8;"></path><path d="M44.61,271.25c-.55,2.59-.85,5.16-.85,7.64,0,7.34,2.58,12.49,6.74,14.9,1.73,1,6.14,3.53,7.87,4.53,4.17,2.4,9.92,2.05,16.27-1.62,2.14-1.24,4.21-2.78,6.18-4.54l-36.21-20.91Z" style="opacity:.15;"></path><path d="M90.95,279.49c4.16-7.22,6.74-15.35,6.74-22.69,0-14.69-10.31-20.65-23.04-13.3-12.72,7.35-23.04,25.21-23.04,39.9s10.31,20.65,23.04,13.3c3.19-1.84,6.23-4.35,9-7.3l9.4,1.72c1.2,.22,2.17-.97,1.72-2.1l-3.81-9.54Z" style="fill:#BA68C8;"></path><path d="M90.95,279.49c4.16-7.22,6.74-15.35,6.74-22.69,0-14.69-10.31-20.65-23.04-13.3-12.72,7.35-23.04,25.21-23.04,39.9s10.31,20.65,23.04,13.3c3.19-1.84,6.23-4.35,9-7.3l9.4,1.72c1.2,.22,2.17-.97,1.72-2.1l-3.81-9.54Z" style="fill:#fff; opacity:.35;"></path></g><g id="Alert"><g><path d="M76.49,277.12l-3.02,1.74c-.55,.32-1.02,.06-1.05-.57l-1.23-22.62c-.03-.63,.38-1.4,.93-1.72l5.72-3.3c.55-.32,.97-.06,.93,.57l-1.23,24.17c-.03,.63-.5,1.4-1.05,1.72Z" style="fill:#fafafa;"></path><path d="M74.98,289.28c-1.92,1.11-3.08-.33-3.08-2.33,0-2.57,1.58-5.02,3.08-5.89,1.93-1.11,3.08,.33,3.08,2.33,0,2.57-1.58,5.02-3.08,5.89Z" style="fill:#fafafa;"></path></g></g></g></g><g id="Plants"><g id="Plant"><g id="Pot"><path d="M67.58,430.91c-7.93-8.18-12.59-28.86-4.85-35.34h39.35c7.73,6.49,3.08,27.15-4.85,35.34-.07,.08-.15,.15-.22,.23-.09,.09-.18,.18-.27,.27-.22,.22-.46,.43-.72,.64-.06,.05-.13,.1-.19,.15-.19,.15-.39,.31-.6,.46-.34,.24-.68,.47-1.03,.66-6.52,3.81-17.1,3.81-23.62,0h0c-.35-.2-.69-.42-1.03-.67-.2-.14-.38-.28-.56-.43-.08-.06-.16-.12-.23-.19-.25-.2-.48-.41-.69-.62-.11-.1-.21-.21-.31-.31-.06-.06-.13-.12-.18-.19Z" style="fill:#37474f;"></path><path d="M98.66,392.96c8.98,5.24,8.98,13.74,0,18.98-8.98,5.24-23.53,5.24-32.51,0-8.98-5.24-8.98-13.74,0-18.98,8.98-5.24,23.53-5.24,32.51,0Z" style="fill:#455a64;"></path><path d="M94.35,395.48c6.59,3.85,6.59,10.09,0,13.94-6.59,3.85-17.28,3.85-23.88,0-6.59-3.85-6.59-10.09,0-13.94,6.59-3.85,17.28-3.85,23.88,0Z" style="fill:#263238;"></path><path d="M70.47,402.09c6.59-3.85,17.28-3.85,23.88,0,1.83,1.07,3.13,2.33,3.95,3.66-.81,1.34-2.12,2.59-3.95,3.66-6.59,3.85-17.28,3.85-23.88,0-1.83-1.07-3.14-2.33-3.95-3.66,.81-1.34,2.12-2.59,3.95-3.66Z" style="fill:#fff;"></path></g><g><path d="M77.02,364.27c-2.66,3.36-10.64,4.83-14.61-3.39-3.73-7.71-7.68-14.99-8.86-17.83-1.18-2.84,1.63-4.03,1.63-4.03,0,0-.1-4.38,7.52-1.99,7.55,2.37,13.19,6.49,16.97,13.51,3.73,6.92,2.23,12.38-2.65,13.73Z" style="fill:#BA68C8;"></path><g style="opacity:.5;"><path d="M77.02,364.27c-2.66,3.36-10.64,4.83-14.61-3.39-3.73-7.71-7.68-14.99-8.86-17.83-1.18-2.84,1.63-4.03,1.63-4.03,0,0-.1-4.38,7.52-1.99,7.55,2.37,13.19,6.49,16.97,13.51,3.73,6.92,2.23,12.38-2.65,13.73Z" style="fill:#fff;"></path></g><g><path d="M81.08,375.23c-.25-1.47-.56-2.94-.98-4.37-.83-2.85-1.87-5.64-3.1-8.34-2.51-5.51-5.81-10.61-9.78-15.18-2.23-2.57-4.64-5.02-7.32-7.13-.08-.06-.13,.11-.07,.16,4.46,4.12,8.45,8.61,11.67,13.78,3.14,5.02,5.63,10.41,7.37,16.07,.49,1.58,.96,3.17,1.38,4.78,.43,1.63,.72,3.28,1.13,4.91,.04,.16,.3,.24,.3,.02-.03-1.57-.32-3.16-.58-4.7Z" style="fill:#BA68C8;"></path><path d="M81.08,375.23c-.25-1.47-.56-2.94-.98-4.37-.83-2.85-1.87-5.64-3.1-8.34-2.51-5.51-5.81-10.61-9.78-15.18-2.23-2.57-4.64-5.02-7.32-7.13-.08-.06-.13,.11-.07,.16,4.46,4.12,8.45,8.61,11.67,13.78,3.14,5.02,5.63,10.41,7.37,16.07,.49,1.58,.96,3.17,1.38,4.78,.43,1.63,.72,3.28,1.13,4.91,.04,.16,.3,.24,.3,.02-.03-1.57-.32-3.16-.58-4.7Z" style="opacity:.3;"></path></g><path d="M85.67,358.38c-6.92,2.14-12.07-3.26-10.29-11.74,1.78-8.48,10.68-17.88,14.05-15.36,2.1-2.1,6.73-1.35,8.9,5.54,2.18,6.88,.2,24.56-12.66,21.56Z" style="fill:#BA68C8;"></path><g style="opacity:.3;"><path d="M85.67,358.38c-6.92,2.14-12.07-3.26-10.29-11.74,1.78-8.48,10.68-17.88,14.05-15.36,2.1-2.1,6.73-1.35,8.9,5.54,2.18,6.88,.2,24.56-12.66,21.56Z" style="fill:#fff;"></path></g><g><path d="M89.74,336.44c-2.06,4.87-3.41,10.09-4.6,15.23-1.22,5.25-2.03,10.59-2.67,15.95-1.24,10.36-1.45,9.78-1.39,20.2,.02,2.88,.06,5.77,.11,8.65,.06,2.97,0,5.97,.26,8.92,.1,1.13,1.71,.83,1.73-.21,.1-5.19-.18-10.4-.24-15.6-.05-5.13-.03,.78,.1-4.35,.27-10.45,1.03-20.9,2.8-31.21,.49-2.87,1.04-5.74,1.71-8.58,.7-2.99,1.57-5.93,2.35-8.89,.03-.12-.1-.27-.17-.11Z" style="fill:#BA68C8;"></path><path d="M89.74,336.44c-2.06,4.87-3.41,10.09-4.6,15.23-1.22,5.25-2.03,10.59-2.67,15.95-1.24,10.36-1.45,9.78-1.39,20.2,.02,2.88,.06,5.77,.11,8.65,.06,2.97,0,5.97,.26,8.92,.1,1.13,1.71,.83,1.73-.21,.1-5.19-.18-10.4-.24-15.6-.05-5.13-.03,.78,.1-4.35,.27-10.45,1.03-20.9,2.8-31.21,.49-2.87,1.04-5.74,1.71-8.58,.7-2.99,1.57-5.93,2.35-8.89,.03-.12-.1-.27-.17-.11Z" style="opacity:.3;"></path></g><path d="M69.65,381.29c-.89,4.48-7.03,7.71-14.12,4.78-7.09-2.94-21.09-21.38-14.7-23.41-.35-3.35,18.98-6.1,28.54,5.69,6.95,8.57,.28,12.94,.28,12.94Z" style="fill:#BA68C8;"></path><g style="opacity:.7;"><path d="M69.65,381.29c-.89,4.48-7.03,7.71-14.12,4.78-7.09-2.94-21.09-21.38-14.7-23.41-.35-3.35,18.98-6.1,28.54,5.69,6.95,8.57,.28,12.94,.28,12.94Z" style="fill:#fff;"></path></g><g><path d="M79.79,387.94c-.88-1.13-1.86-2.16-2.88-3.17-2.07-2.05-4.25-3.99-6.51-5.83-4.64-3.75-9.68-6.89-14.97-9.62-2.93-1.51-5.93-2.98-9.04-4.11-.09-.03-.05,.13,0,.16,2.58,1.22,5.17,2.41,7.66,3.8,2.58,1.44,5.08,3.05,7.51,4.74,4.67,3.26,9.1,6.86,13.21,10.81,1.17,1.12,2.28,2.3,3.46,3.41,1.22,1.15,2.54,2.21,3.71,3.42,.17,.18,.48,.1,.29-.16-.83-1.14-1.58-2.33-2.45-3.45Z" style="fill:#BA68C8;"></path><path d="M79.79,387.94c-.88-1.13-1.86-2.16-2.88-3.17-2.07-2.05-4.25-3.99-6.51-5.83-4.64-3.75-9.68-6.89-14.97-9.62-2.93-1.51-5.93-2.98-9.04-4.11-.09-.03-.05,.13,0,.16,2.58,1.22,5.17,2.41,7.66,3.8,2.58,1.44,5.08,3.05,7.51,4.74,4.67,3.26,9.1,6.86,13.21,10.81,1.17,1.12,2.28,2.3,3.46,3.41,1.22,1.15,2.54,2.21,3.71,3.42,.17,.18,.48,.1,.29-.16-.83-1.14-1.58-2.33-2.45-3.45Z" style="opacity:.3;"></path></g><path d="M108.92,375.88c-.12-2.53-12.84-2.39-18.8,2.4-5.96,4.79-6.67,9.5-2.95,11.13-.65,5.33,7.76,8.84,15.3,2.18,7.53-6.66,9.18-15.18,6.46-15.71Z" style="fill:#BA68C8;"></path><path d="M108.92,375.88c-.12-2.53-12.84-2.39-18.8,2.4-5.96,4.79-6.67,9.5-2.95,11.13-.65,5.33,7.76,8.84,15.3,2.18,7.53-6.66,9.18-15.18,6.46-15.71Z" style="fill:#fff; opacity:.3;"></path><g><path d="M96.39,382.55c-2.9,1.33-5.55,2.97-7.96,5.09-2.39,2.1-4.42,4.55-6.09,7.26-.19,.31,.29,.91,.5,.57,3.27-5.3,8.06-9.89,13.56-12.84,.03-.02,.05-.11,0-.08Z" style="fill:#BA68C8;"></path><path d="M96.39,382.55c-2.9,1.33-5.55,2.97-7.96,5.09-2.39,2.1-4.42,4.55-6.09,7.26-.19,.31,.29,.91,.5,.57,3.27-5.3,8.06-9.89,13.56-12.84,.03-.02,.05-.11,0-.08Z" style="opacity:.3;"></path></g><path d="M87.93,397.61c-4.31,4.23,.45,9.47,7.44,12.07,6.98,2.59,14.71,.84,18.08-.84,3.37-1.68,4.06-2.52,4.06-2.52,0,0-1.65-5.55-3.56-8.55-2.7-4.21-8.67-9.24-17.62-8.09-8.94,1.14-9.67,4.86-8.4,7.94Z" style="fill:#BA68C8;"></path><g style="opacity:.5;"><path d="M87.93,397.61c-4.31,4.23,.45,9.47,7.44,12.07,6.98,2.59,14.71,.84,18.08-.84,3.37-1.68,4.06-2.52,4.06-2.52,0,0-1.65-5.55-3.56-8.55-2.7-4.21-8.67-9.24-17.62-8.09-8.94,1.14-9.67,4.86-8.4,7.94Z" style="fill:#fff;"></path></g><g><path d="M106.01,400.79c-3.5-1.69-7.11-3.32-10.95-4.05-3.75-.72-8.36-.75-11.39,1.92-1.18,1.03-2.74,3.28-1.78,4.87,.1,.16,.57,.45,.67,.14,.33-.99,.43-2.02,.96-2.94,.55-.96,1.39-1.67,2.34-2.2,2.35-1.31,5.29-1.6,7.93-1.35,4.26,.41,8.28,2.12,12.2,3.73,.04,.02,.04-.08,0-.1Z" style="fill:#BA68C8;"></path><path d="M106.01,400.79c-3.5-1.69-7.11-3.32-10.95-4.05-3.75-.72-8.36-.75-11.39,1.92-1.18,1.03-2.74,3.28-1.78,4.87,.1,.16,.57,.45,.67,.14,.33-.99,.43-2.02,.96-2.94,.55-.96,1.39-1.67,2.34-2.2,2.35-1.31,5.29-1.6,7.93-1.35,4.26,.41,8.28,2.12,12.2,3.73,.04,.02,.04-.08,0-.1Z" style="opacity:.3;"></path></g><path d="M89.11,370.95c-1.08,3.78,3.75,7.32,9.76,5.29,6.01-2.02,12.25-3.9,17.37-3.96,5.12-.06,8.37-3.43,7.31-5.71-1.05-2.27-2.3-7.67-15.35-9.21-13.05-1.54-18.94,3.06-21.66,6.67-2.72,3.6,.39,7.55,2.56,6.92Z" style="fill:#BA68C8;"></path><g style="opacity:.7;"><path d="M89.11,370.95c-1.08,3.78,3.75,7.32,9.76,5.29,6.01-2.02,12.25-3.9,17.37-3.96,5.12-.06,8.37-3.43,7.31-5.71-1.05-2.27-2.3-7.67-15.35-9.21-13.05-1.54-18.94,3.06-21.66,6.67-2.72,3.6,.39,7.55,2.56,6.92Z" style="fill:#fff;"></path></g><g><path d="M113.36,363c-1.35-.36-2.82-.4-4.21-.39-1.36,.01-2.72,.11-4.07,.33-2.65,.44-5.22,1.3-7.67,2.38-4.59,2.03-9.14,4.69-12.12,8.82-1.57,2.18-2.94,4.65-3.84,7.19-.17,.49,.77,.76,.98,.33,1.04-2.13,1.94-4.27,3.26-6.26,1.34-2.02,3.01-3.81,5-5.21,4.13-2.89,8.91-5.24,13.84-6.34,1.45-.32,2.93-.57,4.42-.65,1.5-.08,2.95,.09,4.44,.17,.2,.01,.11-.35-.03-.39Z" style="fill:#BA68C8;"></path><path d="M113.36,363c-1.35-.36-2.82-.4-4.21-.39-1.36,.01-2.72,.11-4.07,.33-2.65,.44-5.22,1.3-7.67,2.38-4.59,2.03-9.14,4.69-12.12,8.82-1.57,2.18-2.94,4.65-3.84,7.19-.17,.49,.77,.76,.98,.33,1.04-2.13,1.94-4.27,3.26-6.26,1.34-2.02,3.01-3.81,5-5.21,4.13-2.89,8.91-5.24,13.84-6.34,1.45-.32,2.93-.57,4.42-.65,1.5-.08,2.95,.09,4.44,.17,.2,.01,.11-.35-.03-.39Z" style="opacity:.3;"></path></g><path d="M78.41,392.28c-1.02-3.89-5.95-6.08-12.4-6.56-6.45-.48-12.66,2.46-16.04,8.23-3.37,5.77-4.77,10.36-2.72,11.11,2.05,.75,10.71,1.95,16.31,2.45,5.59,.5,12.58-.51,17.14-4.76,4.56-4.25,3.06-9.58-2.28-10.48Z" style="fill:#BA68C8;"></path><path d="M78.41,392.28c-1.02-3.89-5.95-6.08-12.4-6.56-6.45-.48-12.66,2.46-16.04,8.23-3.37,5.77-4.77,10.36-2.72,11.11,2.05,.75,10.71,1.95,16.31,2.45,5.59,.5,12.58-.51,17.14-4.76,4.56-4.25,3.06-9.58-2.28-10.48Z" style="fill:#fff; opacity:.3;"></path><g><path d="M78.65,391.77c-2.19-.7-4.71-.58-6.96-.32-2.24,.25-4.44,.78-6.57,1.51-2.25,.78-4.42,1.78-6.51,2.93-1.09,.6-2.16,1.23-3.21,1.9-.98,.62-2.01,1.23-2.88,1.99-.03,.03-.03,.16,.04,.14,1.06-.47,2.05-1.14,3.06-1.71,1.09-.61,2.19-1.21,3.31-1.78,2.09-1.06,4.23-2,6.45-2.74,2.22-.73,4.51-1.25,6.84-1.46,2.19-.2,4.34,.02,6.53,.17,.45,.03,.2-.53-.07-.62Z" style="fill:#BA68C8;"></path><path d="M78.65,391.77c-2.19-.7-4.71-.58-6.96-.32-2.24,.25-4.44,.78-6.57,1.51-2.25,.78-4.42,1.78-6.51,2.93-1.09,.6-2.16,1.23-3.21,1.9-.98,.62-2.01,1.23-2.88,1.99-.03,.03-.03,.16,.04,.14,1.06-.47,2.05-1.14,3.06-1.71,1.09-.61,2.19-1.21,3.31-1.78,2.09-1.06,4.23-2,6.45-2.74,2.22-.73,4.51-1.25,6.84-1.46,2.19-.2,4.34,.02,6.53,.17,.45,.03,.2-.53-.07-.62Z" style="opacity:.3;"></path></g></g></g></g><g id="Envelope"><g id="Envelope-2"><g><path d="M462.82,332.82s0-.03,0-.05c0,0,0,0,0-.01,0-.01,0-.03,0-.04,0-.02,0-.04-.01-.06,0-.02-.01-.05-.03-.07-.04-.09-.12-.18-.23-.25,0,0,0,0-.01-.01-.01,0-.02-.01-.04-.02-.01,0-.02-.02-.04-.02h-.01l-30.28-17.5s-.04-.02-.06-.03c-.55-.3-1.16-.44-1.76-.42h-.03c-.52,.03-1.03,.18-1.49,.44h0l-2.2,1.27-38.19,22.05-4.87,2.81h-.01c-.28,.23-.44,.56-.45,.89h0v4.58h0v.08c0,.4,.2,.8,.59,1.03h0l.48,.28,29.68,17.14c.26,.15,.61,.23,.95,.22,.32,0,.63-.08,.87-.21h.01l40.84-23.58,5.93-3.42s.04-.02,.06-.04l.04-.02c.19-.13,.27-.29,.28-.45,0-.05-.01-4.42,0-4.58Z" style="fill:#BA68C8;"></path><path d="M414.22,365.05s.04,.01,.07,.02c.08,.02,.16,.03,.24,.04h0c.06,0,.12,0,.18,0,.02,0,.05,0,.07,0v-4.58c-.33,0-.66-.07-.92-.22l-30.16-17.42c-.37-.21-.59-.55-.6-1.1v4.57h0v.08c0,.4,.2,.8,.59,1.03h0l.48,.28,29.68,17.14c.06,.04,.13,.07,.21,.1,.05,.02,.1,.03,.16,.05Z" style="fill:#fff; opacity:.25;"></path><path d="M462.82,337.4c-.01,.16-.1,.32-.28,.45l-.04,.02s-.04,.02-.06,.04l-46.76,27h-.01c-.24,.14-.56,.21-.87,.22h-.03v-4.58c.32,0,.66-.08,.9-.21h.01l46.82-27.04,.04-.02c.19-.13,.27-.29,.28-.45-.01,.16,0,4.53,0,4.58Z" style="fill:#fff; opacity:.15;"></path><path d="M462.82,332.82c-.01,.16-.1,.32-.28,.45l-.04,.02-5.98,3.46-24.74,14.29-16.1,9.3h-.01c-.24,.14-.56,.21-.87,.22-.34,0-.69-.07-.95-.22l-.52-.3-23.11-13.35-6.06-3.49-.48-.27h0c-.41-.24-.61-.66-.59-1.08v-.02h0c.02-.34,.17-.66,.45-.89h.01l4.87-2.82,38.19-22.05,2.2-1.27h0c.46-.27,.97-.42,1.49-.44h.03c.6-.03,1.21,.11,1.76,.41,.02,.01,.04,.02,.06,.03l30.28,17.49h.01s.03,.03,.04,.04c.01,0,.02,.01,.04,.02,0,0,0,0,.01,.01,.11,.07,.18,.16,.23,.25,.01,.02,.02,.05,.03,.07,.01,.02,.01,.04,.01,.06,0,.02,0,.03,0,.04,0,0,0,.01,0,.01,0,.01,0,.03,0,.05Z" style="opacity:.4;"></path><g><path d="M462.82,332.82c-.01,.16-.1,.32-.28,.45l-.04,.02-5.98,3.46-24.74,14.29-16.1,9.3h-.01c-.24,.14-.56,.21-.87,.22-.34,0-.69-.07-.95-.22l-.52-.3-23.11-13.35-6.06-3.49-.48-.27h0c-.41-.24-.61-.66-.59-1.08v-.02h0c.15-.05,.34-.08,.55-.11l5.42-.54,28.13-2.8h0l4.39-.44c.97-.09,1.83-.45,1.93-.78l.88-2.94h0l5.49-18.39,.41-1.37v-.02s.02-.06,.04-.09c.6-.02,1.21,.11,1.76,.42,.02,.01,.04,.02,.06,.03l1.32,.76,28.97,16.72h.01s.03,.03,.04,.04c.01,0,.02,.01,.04,.02,0,0,0,0,.01,.01,.11,.07,.18,.16,.23,.25,.01,.02,.02,.05,.03,.07,.01,.02,.01,.04,.01,.06,0,.02,0,.03,0,.04,0,0,0,.01,0,.01,0,.01,0,.03,0,.05Z" style="fill:#BA68C8;"></path><path d="M462.82,332.82c-.01,.16-.1,.32-.28,.45l-.04,.02-5.98,3.46-24.74,14.29-16.1,9.3h-.01c-.24,.14-.56,.21-.87,.22-.34,0-.69-.07-.95-.22l-.52-.3-23.11-13.35-6.06-3.49-.48-.27h0c-.41-.24-.61-.66-.59-1.08v-.02h0c.15-.05,.34-.08,.55-.11l5.42-.54,28.13-2.8h0l4.39-.44c.97-.09,1.83-.45,1.93-.78l.88-2.94h0l5.49-18.39,.41-1.37v-.02s.02-.06,.04-.09c.6-.02,1.21,.11,1.76,.42,.02,.01,.04,.02,.06,.03l1.32,.76,28.97,16.72h.01s.03,.03,.04,.04c.01,0,.02,.01,.04,.02,0,0,0,0,.01,.01,.11,.07,.18,.16,.23,.25,.01,.02,.02,.05,.03,.07,.01,.02,.01,.04,.01,.06,0,.02,0,.03,0,.04,0,0,0,.01,0,.01,0,.01,0,.03,0,.05Z" style="fill:#fff; opacity:.5;"></path><path d="M462.45,333.33s.04-.02,.06-.04l.03-.02c.19-.13,.28-.29,.28-.45,.01-.19-.11-.39-.36-.54l-34.17,1.66-.07,.69,28.31,2.12,5.92-3.42Z" style="fill:#BA68C8; opacity:.35;"></path><path d="M413.85,360.33c.26,.15,.61,.22,.95,.22,.32,0,.63-.08,.87-.21h0l16.1-9.3-12.11-10.52-2.88,.1-3.46,19.41,.52,.3Z" style="fill:#BA68C8; opacity:.35;"></path><path d="M462.82,332.82c0,.16-.1,.32-.28,.45l-.03,.02-46.82,27.04h0c-.25,.14-.56,.21-.87,.22l2.63-24.34c.11-1.01,2.42-1.84,5.43-1.95l39.96-1.44Z" style="fill:#BA68C8;"></path><path d="M462.82,332.82c0,.16-.1,.32-.28,.45l-.03,.02-46.82,27.04h0c-.25,.14-.56,.21-.87,.22l2.63-24.34c.11-1.01,2.42-1.84,5.43-1.95l39.96-1.44Z" style="fill:#fff; opacity:.55;"></path></g><path d="M430.34,314.34l-.15,1.45-1.91,18.22v.05l-.05,.45-.42,3.96c-.11,1.01-2.42,1.84-5.44,1.95l-2.71,.1h0l-2.71,.1h-.16l-27.63,1-6.07,.22v-.02h0c.02-.34,.17-.66,.45-.89h.01l4.87-2.82,38.2-22.05,2.19-1.27h0c.46-.27,.97-.42,1.49-.44h.03Z" style="fill:#BA68C8; opacity:.35;"></path><path d="M430.32,314.34v.1l-.24,1.35-3,18.28v.04l-.06,.31-.55,3.36c-.15,.95-2.27,1.73-5.08,1.89l-2.53,.14h0l-1.83,.1h-.11l-27.78,1.56-6.04,.34h0c.02-.34,.17-.66,.45-.89h.01l4.87-2.82,38.2-22.05,2.19-1.27h0c.46-.27,.97-.42,1.49-.44Z" style="fill:#BA68C8;"></path><path d="M430.32,314.34v.1l-.24,1.35-3,18.28v.04l-.06,.31-.55,3.36c-.15,.95-2.27,1.73-5.08,1.89l-2.53,.14h0l-1.83,.1h-.11l-27.78,1.56-6.04,.34h0c.02-.34,.17-.66,.45-.89h.01l4.87-2.82,38.2-22.05,2.19-1.27h0c.46-.27,.97-.42,1.49-.44Z" style="fill:#fff; opacity:.6;"></path></g></g></g><g id="Like_Icon"><g id="Like_Icon-2"><g><polygon points="256.07 412 256.07 416.2 264.47 416.2 264.47 421.98 269.2 421.98 269.2 426.56 252.81 426.56 252.81 412 256.07 412" style="fill:#263238;"></polygon><path d="M273.38,428.17c-.04,1.04-.78,2.16-2.37,3.07-3.05,1.76-23.32,13.49-23.32,13.49v8.53s20.28-11.73,23.32-13.5c1.64-.94,2.38-2.1,2.37-3.17,0-.9,.01-7.07,0-8.42Z" style="fill:#37474f;"></path><path d="M214.17,417.01c-.94-.53-1.97-1.07-2.94-1.58-.79-.41-1.53-.79-2.12-1.1-.61-.31-1.09-.56-1.32-.7-.1-.06-.15-.13-.17-.23,0,.58,0,8.36,0,8.49,0,.11,.07,.2,.18,.26,.24,.14,.71,.38,1.32,.7,.6,.31,1.34,.69,2.13,1.1,.97,.5,1.99,1.05,2.93,1.57,1.5,.84,2.75,1.63,3.08,2.09,.11,.15,.27,.42,.44,.77,.21,.47,.47,1.08,.74,1.77h0c1.24,3.12,2.82,7.83,2.82,7.83h.03v-8.51l-.03-.02s-1.58-4.7-2.82-7.82h0c-.28-.7-.53-1.31-.74-1.78-.18-.35-.33-.62-.44-.77-.34-.46-1.58-1.25-3.08-2.09Z"></path><polygon points="247.69 444.73 221.29 429.48 221.29 438.01 247.69 453.25 247.69 444.73" style="fill:#263238;"></polygon><g><path d="M221.51,429.27c-.24-.72-1.66-4.9-2.79-7.73,0-.01-.01-.03-.02-.04-.27-.68-.53-1.29-.73-1.75-.2-.4-.35-.67-.48-.83-.32-.44-1.36-1.16-3.17-2.17-.94-.53-1.97-1.08-2.94-1.58-.5-.26-2.13-1.1-2.13-1.1-.61-.31-1.07-.55-1.31-.69-.03-.02-.04-.1,.11-.29,.74-.93,3.5-2.26,6.77-2.34h.29c1.01,0,2.02,.11,3,.35,2.41,.57,4.46,1.23,6.27,2.01,2.67,1.13,4.8,2.54,6.72,4.42,.06,.06,.13,.08,.21,.08,.05,0,.1-.01,.15-.04l14.1-8.15c1.01-.59,2.27-.91,3.65-.93h.19c1.96,0,3.64,.57,4.49,1.06,2.38,1.36,1.93,2.89,1.74,3.33-.05,.11-.03,.23,.05,.32,.06,.06,.14,.1,.22,.1,.03,0,.07,0,.1-.02,.01,0,1.1-.38,2.6-.38s2.78,.34,3.94,1.01c.97,.56,1.57,1.34,1.65,2.13,.07,.65-.23,1.29-.86,1.85-.09,.08-.12,.21-.08,.32,.04,.11,.14,.19,.26,.2,.02,0,1.97,.1,4.16,1.36,.74,.43,1.26,1.36,1.26,2.27,0,.8-.39,1.47-1.1,1.88-.1,.06-.16,.18-.14,.3,.02,.12,.11,.22,.23,.24,.02,0,1.95,.45,3.73,1.48,.95,.54,1.47,1.3,1.47,2.14,0,1.04-.79,2.07-2.22,2.89l-23.18,13.41-26.19-15.12Z" style="fill:#fff;"></path><path d="M249.39,408.79c1.78,0,3.46,.51,4.35,1.02,2.17,1.23,1.78,2.57,1.61,2.95-.1,.21-.05,.46,.1,.64,.11,.12,.27,.19,.43,.19,.06,0,.13-.01,.19-.03,.01,0,1.06-.36,2.5-.36s2.67,.33,3.79,.97c.89,.51,1.44,1.21,1.51,1.9,.06,.56-.2,1.1-.76,1.6-.18,.16-.24,.41-.16,.64,.08,.23,.29,.38,.53,.39,.02,0,1.91,.1,4.02,1.32,.66,.38,1.11,1.21,1.11,2.02,0,.49-.17,1.17-.96,1.63-.21,.12-.32,.36-.29,.6,.04,.24,.22,.43,.45,.49,.02,0,1.91,.44,3.65,1.45,.85,.48,1.32,1.15,1.32,1.89,0,.92-.76,1.88-2.07,2.64l-23.03,13.32-25.94-14.98c-.32-.95-1.68-4.92-2.76-7.64,0-.02-.02-.04-.03-.06-.25-.63-.51-1.25-.74-1.76-.21-.41-.37-.69-.49-.85-.22-.31-.81-.88-3.27-2.26-.81-.45-1.77-.97-2.95-1.58-.51-.27-1-.52-1.44-.75l-.69-.36c-.36-.18-.78-.4-1.08-.56,.62-.74,3.12-2.12,6.52-2.2,.09,0,.19,0,.29,0,.99,0,1.98,.12,2.93,.34,2.39,.57,4.43,1.22,6.22,1.99,2.63,1.12,4.74,2.5,6.63,4.36,.11,.11,.26,.17,.41,.17,.1,0,.2-.03,.29-.08l14.11-8.15c.96-.56,2.18-.87,3.51-.89h.18m0-.59c-.06,0-.13,0-.19,0-1.28,.02-2.63,.29-3.79,.97l-14.1,8.15c-1.86-1.82-4-3.28-6.81-4.48-1.8-.77-3.87-1.44-6.32-2.03-1.06-.25-2.08-.36-3.07-.36-.1,0-.2,0-.3,0-3.47,.08-6.23,1.5-6.99,2.45-.26,.32-.28,.59-.03,.73,.24,.14,.71,.38,1.32,.69,.6,.31,1.34,.69,2.13,1.1,.97,.5,2,1.05,2.93,1.58,1.5,.84,2.75,1.63,3.08,2.09,.12,.15,.27,.42,.44,.77,.21,.47,.47,1.08,.74,1.77h0c1.24,3.13,2.82,7.83,2.82,7.83l26.43,15.26s20.28-11.73,23.32-13.49c1.63-.94,2.37-2.09,2.37-3.15,0-.94-.57-1.81-1.62-2.4-1.84-1.06-3.81-1.51-3.81-1.51,1.98-1.15,1.36-3.79-.16-4.67-2.28-1.32-4.29-1.4-4.29-1.4,1.7-1.5,1.01-3.39-.84-4.46-1.42-.82-2.88-1.05-4.09-1.05-1.57,0-2.69,.39-2.69,.39,.31-.7,.54-2.33-1.86-3.7-.98-.56-2.74-1.1-4.64-1.1h0Z" style="fill:#455a64;"></path></g></g><g><path d="M243.75,446.33c.38,.22,.7,.59,.95,1.01,.23,.42,.39,.9,.39,1.33v5.42c0,.86-.6,1.89-1.34,2.33h0l-7.49,4.33c-.38,.21-.87,.32-1.35,.32-.49,0-.98-.11-1.35-.32l-28.03-16.19c-.75-.43-1.35-1.48-1.35-2.34v-5.42c0-.43,.15-.91,.4-1.33,.24-.42,.57-.78,.94-1,0,0,.01,0,.01,0l7.51-4.33c.74-.43,1.94-.44,2.69,0h0l28.02,16.2Z" style="fill:#455a64;"></path><path d="M234.91,452.98l-30.34-17.51c-.24,.42-.4,.9-.4,1.33v5.42c0,.86,.6,1.91,1.35,2.34l28.03,16.19c.37,.21,.86,.32,1.35,.32v-8.08Z" style="fill:#263238;"></path><path d="M244.7,447.33l-9.79,5.65v8.08c.48,0,.97-.11,1.35-.32l7.49-4.32h0c.74-.44,1.34-1.48,1.34-2.34v-5.42c0-.43-.16-.91-.39-1.33Z" style="fill:#37474f;"></path></g></g></g><g id="Tipping_Bubble"><g id="Bubble-2"><path d="M455.61,259.88l-2.85-20.58c-.17-1.19-.75-2-1.53-2.33-.64-.27-4.52-1.92-5.29-2.25-.64-.28-1.42-.22-2.22,.24l-90.42,52.22c-1.75,1.01-2.92,3.58-2.61,5.74l2.85,20.58c.15,1.08,.65,1.85,1.32,2.23s4.73,2.02,5.49,2.35c.64,.28,1.43,.22,2.23-.24l6.08-3.51-.14,2.47,5.31,2.26,7.2-11.88,71.97-41.56c1.75-1.01,2.92-3.58,2.61-5.74Z" style="fill:#BA68C8;"></path><path d="M383.15,305.96l-19.89-11.31-12.12-4.83c-.41,.99-.6,2.09-.46,3.1l2.85,20.58c.15,1.08,.65,1.85,1.32,2.23,.68,.38,4.73,2.02,5.49,2.35,.64,.28,1.43,.22,2.23-.24l6.08-3.51-.14,2.47,5.31,2.26,7.2-11.88,2.12-1.22Z" style="opacity:.2;"></path><g><path d="M374.56,310.63l-12.12,7c-.43,.25-.86,.38-1.27,.38-1.08,0-1.88-.87-2.08-2.27l-2.85-20.58c-.29-2.06,.82-4.52,2.49-5.48l90.42-52.22c.43-.25,.86-.38,1.27-.38,1.08,0,1.88,.87,2.08,2.27l2.85,20.58c.29,2.06-.82,4.52-2.49,5.48l-72.02,41.6-6.7,11.06,.42-7.43Z" style="fill:#fafafa;"></path><path d="M450.42,237.33c.95,0,1.65,.78,1.83,2.04l2.85,20.58c.28,1.97-.78,4.31-2.36,5.22l-71.97,41.56-.11,.07-.07,.11-6.14,10.13,.34-5.94,.05-.94-.82,.47-11.71,6.76c-.39,.23-.78,.34-1.14,.34-.95,0-1.65-.78-1.83-2.04l-2.85-20.58c-.28-1.97,.78-4.31,2.36-5.22l90.42-52.22c.39-.23,.78-.34,1.14-.34m0-.51c-.44,0-.92,.13-1.4,.41l-90.42,52.22c-1.75,1.01-2.92,3.58-2.61,5.74l2.85,20.58c.22,1.57,1.17,2.48,2.33,2.48,.44,0,.92-.13,1.4-.41l11.71-6.76-.45,7.99,7.2-11.88,71.97-41.56c1.75-1.01,2.92-3.58,2.61-5.74l-2.85-20.58c-.22-1.57-1.17-2.48-2.33-2.48h0Z" style="fill:#BA68C8;"></path></g><path d="M449.6,254.02c-.05-.41-.29-.59-.58-.42l-86.48,49.93c-.39,.22-.69,.95-.63,1.5,.05,.41,.29,.59,.58,.42l86.48-49.93c.39-.22,.69-.95,.63-1.5Zm-10.71,10.65c-.05-.41-.29-.59-.58-.42l-75.2,43.45c-.39,.22-.69,.95-.63,1.5,.05,.41,.29,.59,.58,.42l75.2-43.45c.39-.22,.69-.95,.63-1.5Zm10.14-14.83c-.05-.41-.29-.59-.58-.42l-86.48,49.93c-.39,.22-.69,.95-.63,1.5,.05,.41,.29,.59,.58,.42l86.48-49.93c.39-.22,.69-.95,.63-1.5Zm-.57-4.18c-.05-.41-.29-.59-.58-.42l-86.48,49.93c-.39,.22-.69,.95-.63,1.5,.05,.41,.29,.59,.58,.42l86.48-49.93c.39-.22,.69-.95,.63-1.5Z" style="fill:#e0e0e0;"></path></g></g><g id="Character-4"><g id="Character-5"><g id="Bottom"><g><path d="M350.2,426.69l10.61-14.36,13.65,12.61-23.39,19.82s-9.25-2.81-9.81-8.3,6.02-8.57,8.94-9.77Z" style="fill:#f0997a;"></path><g><path d="M339.12,429.55c-3.01,.09-4.35,.87-5.43,3.3-1.08,2.43-.8,5.02-2.03,8.39-1.22,3.37-3.1,4.72-4.99,9.08-1.88,4.36-1.93,12.09,.3,17.03,2.23,4.94,4.41,7.29,10.33,7.46l1.81-45.26Z" style="fill:#263238;"></path><path d="M350.2,426.69l-1.28,1.65s.49,4.08,3.68,7.5c3.19,3.42,4.85,3.52,4.85,3.52l1.05-.89s.43,.58-1.24,1.92c-1.67,1.34-3.27,2.49-5.66,5.7-2.39,3.21-5.28,11.31-6.56,17.32-1.28,6.01-1.25,10.49-6.02,11.33-4.77,.84-8.49-4.39-10.25-8.88-1.76-4.5-1.5-10.75-.08-15,1.42-4.25,5.15-6.46,5.49-11.66,.25-3.83,1.51-7.41,3.43-8.91,1.92-1.5,5.26-1.33,7.69-2.15,2.43-.82,4.12-2.1,4.92-1.45Z" style="fill:#455a64;"></path><g><path d="M344.32,467.12c-1.82-6.43-11.38-10.07-16.78-8.53,.01,2.55,.38,5.11,1.22,7.27,1.76,4.5,5.48,9.72,10.25,8.88,3.72-.65,4.52-3.53,5.3-7.62Z" style="fill:#fafafa;"></path><path d="M357.26,440.4c1.67-1.34,1.24-1.92,1.24-1.92l-1.05,.89s-1.65-.1-4.85-3.52c-3.19-3.42-3.68-7.5-3.68-7.5l1.28-1.65c-.79-.66-2.48,.63-4.92,1.45-2.43,.82-5.77,.65-7.69,2.15-1,.78-1.82,2.13-2.41,3.77l15.12,3.89s-2.61,6.38-4.64,12.39c-2.48,7.37-2.68,16.95-7.07,19.24-4.22,2.21-10.38-7.18-10.86-14.52-.46,3.59-.22,7.63,1.01,10.79,1.76,4.5,5.48,9.72,10.25,8.88,4.77-.84,4.74-5.32,6.02-11.33,1.28-6.01,4.17-14.11,6.56-17.32,2.39-3.21,3.99-4.36,5.66-5.7Z" style="opacity:.1;"></path><g><path d="M345.95,461.02c-.19-.48-.45-.93-.73-1.37-.53-.84-1.17-1.61-1.9-2.3-1.53-1.44-3.49-2.69-5.56-3.14-.19-.04-.24,.35-.11,.43,1.68,1.12,3.5,2.02,4.98,3.42,.63,.6,1.21,1.24,1.7,1.96,.25,.37,.46,.76,.66,1.16,.21,.42,.4,.99,.82,1.24,.05,.03,.13,0,.16-.03,.37-.38,.14-.95-.03-1.37Z" style="fill:#fafafa;"></path><path d="M347.21,456.59c-.58-1.7-1.89-3.15-3.26-4.27-.62-.51-1.3-.97-2-1.36-.35-.2-.72-.37-1.1-.53-.42-.17-.84-.23-1.29-.3-.16-.03-.24,.31-.11,.38,.74,.42,1.48,.86,2.21,1.3,.7,.42,1.36,.9,1.97,1.44,.57,.51,1.12,1.05,1.62,1.63,.58,.68,1.09,1.42,1.66,2.12,.2,.24,.34-.26,.29-.4Z" style="fill:#fafafa;"></path><path d="M348.15,449.62c-.52-.76-1.14-1.45-1.83-2.06-.74-.65-1.55-1.21-2.41-1.69-.77-.43-1.63-.95-2.53-.99-.22-.01-.28,.41-.13,.52,.74,.59,1.63,.94,2.44,1.43,.76,.46,1.51,.98,2.18,1.57,.58,.52,1.12,1.1,1.56,1.74,.22,.31,.4,.64,.6,.95,.28,.44,.48,.93,.8,1.34,.13,.17,.28-.1,.29-.21,.05-.92-.47-1.86-.98-2.6Z" style="fill:#fafafa;"></path><path d="M350.49,444.97c-.57-.67-1.15-1.33-1.78-1.94-.63-.62-1.32-1.18-2.06-1.65-.7-.45-1.44-.88-2.29-.93-.22-.01-.26,.4-.1,.5,.69,.45,1.43,.83,2.1,1.31,.67,.48,1.27,1.04,1.86,1.61,.53,.52,1.02,1.06,1.5,1.63,.23,.27,.47,.55,.66,.85,.09,.14,.15,.29,.22,.45,.09,.22,.24,.41,.33,.62,.07,.16,.23,.23,.35,.07,.61-.86-.23-1.86-.79-2.52Z" style="fill:#fafafa;"></path></g></g></g></g><g><path d="M339.93,367.21s33.35,2.52,48.88,5.75c15.84,3.3,15.66,17.85,10.89,25.19-10.76,16.57-29.68,30.94-29.68,30.94,0,0-11.87-4.18-13.1-12.83l7.02-10.74-20.16,2.58-8.42-8.8-4.23-4.3,8.79-27.8Z" style="fill:#37474f;"></path><g><path d="M358.57,416.88s7.64,5.17,11.27,7.05c3.63,1.88,6.22,2.85,6.22,2.85l-4.69,13.96-19.59-6.31,6.8-17.56Z" style="fill:#ffbda7;"></path><g><path d="M373.29,442.12s3.85,2.28,4.89,2.66c1.05,.38,3.69,.84,5.56,1.86,1.87,1.02,9.12,5.07,13.58,5.54,4.46,.47,12.26-.58,14.82-7.84l-38.85-2.22Z" style="fill:#263238;"></path><path d="M372.7,425.34c1.38,.74,1.64,5.78,.51,8.79-.88,2.33-3.41,5.84-4.87,5.65l-1.39-.45s-.01,1,2.24,1.55c2.26,.55,9.03,2.88,11.61,3.6,2.58,.72,7.79,3.93,11.12,5.02,3.33,1.09,6.45,2.69,12.31,1.05,5.86-1.64,10.28-7.3,8.59-12.61-1.69-5.31-7.23-7.02-11.85-7.86-4.62-.84-12.73-.49-17.78-1.88-5.04-1.39-8.26-2.81-9.78-3.56s-2.48-.13-2.48-.13l1.76,.85Z" style="fill:#455a64;"></path><g><path d="M394.69,430.42c-1.34,1.25-2.09,3.15-2.61,4.87-.58,1.91-1.1,4.05-.92,6.04,.02,.2,.29,.56,.45,.24,.41-.83,.5-1.71,.66-2.61,.17-.9,.32-1.8,.55-2.69,.22-.84,.49-1.67,.82-2.48,.4-.98,.97-1.86,1.51-2.76,.16-.27-.12-.94-.45-.63Z" style="fill:#fafafa;"></path><path d="M390.54,430.45c-.04-.19-.19-.44-.42-.4-.45,.08-.6,.43-.82,.8-.23,.39-.45,.79-.64,1.2-.36,.79-.65,1.6-.89,2.43-.24,.82-.43,1.66-.56,2.51-.15,.98-.31,1.96,.05,2.9,.05,.14,.27,.42,.43,.2,.51-.69,.41-1.6,.53-2.42,.13-.84,.31-1.67,.56-2.48,.25-.81,.56-1.59,.91-2.36,.19-.4,.37-.8,.58-1.19,.22-.42,.36-.7,.25-1.19Z" style="fill:#fafafa;"></path><path d="M385.6,429.47c-.35,.27-.53,.72-.74,1.11-.19,.35-.37,.71-.53,1.07-.34,.79-.62,1.61-.87,2.43-.47,1.59-.91,3.36-.62,5.03,.04,.24,.39,.61,.55,.23,.31-.73,.39-1.57,.53-2.35,.14-.81,.33-1.61,.56-2.39,.23-.76,.51-1.5,.81-2.23,.15-.36,.3-.72,.46-1.07,.18-.4,.41-.76,.47-1.2,.04-.28-.28-.91-.63-.63Z" style="fill:#fafafa;"></path><path d="M381.64,428.04c-2.4,2.65-3.52,6.61-3.09,10.13,.02,.16,.2,.14,.24,0,.48-1.6,.89-3.23,1.43-4.82,.54-1.6,1.26-3.12,1.93-4.67,.12-.28-.16-1.02-.51-.64Z" style="fill:#fafafa;"></path></g><path d="M412.82,437.94c-1.34-4.21-5.09-6.15-8.89-7.2-5.71,2.81-7.54,17.48-6.33,20.38,1.82,.25,3.94,.19,6.63-.57,5.86-1.64,10.28-7.3,8.59-12.61Z" style="fill:#fafafa;"></path><path d="M404.23,450.55c4.64-1.3,8.37-5.12,8.89-9.29-.1,.25-1.74,4.16-6.47,6.08-4.89,1.98-15.07-1.45-19.46-4.06-3.56-2.12-9.53-3.68-15.2-6.79-1.13,1.79-2.65,3.43-3.66,3.3l-1.39-.45s-.01,1,2.24,1.55c2.26,.55,9.03,2.88,11.61,3.6,2.58,.72,7.79,3.93,11.12,5.02,3.33,1.09,6.45,2.69,12.31,1.05Z" style="opacity:.1;"></path></g></g><path d="M362.66,418.05c-9.37-7.76-22.95-20.05-28.97-22.95-.16-.07-.32-.15-.47-.22,4.21-6.75,7.33-12.85,6.71-27.67l-61.26,.06s-6.42,16.95-3.05,28.06c4,13.16,13.06,18.47,23.12,22.97,10.41,4.66,22.55,6.66,22.55,6.66,2.6,2.34,6.39,4.3,11.22,5.71,6.09,1.79,17.6,4.14,24.24,5.89,5.07-4.43,7.25-17.41,5.91-18.51Z" style="fill:#37474f;"></path><path d="M336.6,393.11c2.98-6.82,2.58-12.34,2.58-12.34-.69,4.33-2.76,8.71-4.41,11.54-2.3-1.2-4.33-1.41-7.94-1.5-6.29-.16-24.51-.54-24.51-.54,0,0,17.24,1.56,26.06,3.21,1.8,.34,3.45,.7,4.83,1.4,4.57,2.32,7.95,5.31,10.08,6.92,3.94,2.99,6.68,5.51,6.68,5.51l3.51-.45s-7.27-5.94-12.8-10.39c-.76-.61-3.42-2.76-4.1-3.37Zm-17.23,31.49c1.3,.25,1.92,.36,1.92,.36,.02,.02,.04,.03,.06,.05-2.05-2.51-2.72-4.1-2.72-4.1,0,0-.08,1.33,.74,3.69Zm47.66-29.8c-3.43,5.62-3.98,6.63-6.57,11.17l3.48-.44c4.52-7.91,8.53-18.03,16.05-20.64,0,0-6.68-.38-12.97,9.91Z" style="fill:#263238;"></path></g></g><g id="Top-2"><path d="M331.23,272.48c-.28,.26-.59,.5-.76,.83-.14,.29-.16,.63-.17,.95-.43,10.43,.21,31.98,.31,35.48h-49.38c.08-5.94,.37-22.19,1.16-31.89,.36-4.43-.03-8.86,2.35-15.5,.53-1.49,1.59-3.18,2.5-4.5,1.06-1.55,2.38-2.93,3.9-4.07,3.7-2.77,5.97-3.34,9.72-4.44,4.68-1.37,10.63-1.24,15.41-.44,4.9,.82,9.68,2.88,13.06,6.39,.5,.52,.96,1.07,1.38,1.64,2.46,3.35,3.62,7.63,2.64,11.6-.36,1.46-1.02,2.9-2.15,3.94Z" style="fill:#263238;"></path><g><path d="M321.45,303.15c6.85,.59,10.58,1.59,15.28,7.77,4.7,6.18,22.06,33.94,22.06,33.94l-15.38,10.04-17.07-25.8-4.89-25.94Z" style="fill:#f0997a;"></path><path d="M321.44,302.8c5.37,0,9.03,1.19,11.87,3.48,4.12,3.33,10.1,12.41,10.1,12.41-4.31,6.5-10.79,9.54-17.33,11.14l-4.18-4.15-.46-22.88Z" style="fill:#BA68C8;"></path></g><g id="Head-2"><path d="M313.94,302.65c-1.19,.04-1.35-1.93-1.36-2.49l-.08-2.55c3.17,.09,5.99-.43,7.84-1.71,3.09-2.16,5.66-5.21,5.66-14.96,0-4.27-.83-6.16-.74-7.12,.18-1.97,.23-5.06,0-7.03-.17-1.4-1.74-2.58-2.95-3.08-1.36-.57-2.81-.89-4.19-1.41-1.38-.53-2.72-1.31-3.53-2.54,.46,2.4,2.4,4.45,4.78,5.04-1.54,.79-3.36,.94-5.05,.59-1.69-.35-3.26-1.18-4.62-2.24-2.45-1.91-4.95-4.11-8.28-2.85-.74,.28-.1,2.09-.11,2.81-.02,1.05-.23,2.1-.6,3.08-.37,.99-.9,1.91-1.58,2.72-.16,.19-2.25,2.11-2.32,1.96,.61,1.29,.95,2.7,1.01,4.12,.02,.66-.02,1.35-.28,1.96-.26,.61-.78,1.14-1.44,1.28-1.48,.31-1.77-1.52-2.51-2.4-.71-.84-1.63-1.52-2.68-1.87-1.84-.62-3.97-.15-5.14,1.48-1.87,2.6-1.93,6.69,1.41,10.51,3.26,3.73,7.07,1.5,7.14,.76,0,0,.36,11.69,.38,13.65,.02,1.96-.21,2.77-2.61,3.61,0,0,3.82,5.9,16.47,4.72,8.06-.75,5.39-6.05,5.39-6.05Z" style="fill:#ffbda7;"></path><path d="M308.89,275.19c-.01,1.01-.84,1.83-1.86,1.82-1.01-.01-1.83-.84-1.82-1.86,.01-1.01,.84-1.83,1.86-1.82,1.01,.01,1.83,.84,1.82,1.86Z" style="fill:#263238;"></path><path d="M322.14,274.96c-.01,1.01-.84,1.83-1.86,1.82-1.01-.01-1.83-.84-1.82-1.86,.01-1.01,.84-1.83,1.86-1.82,1.01,.01,1.83,.84,1.82,1.86Z" style="fill:#263238;"></path><path d="M289.22,284.39c-.04,.96,.71,1.76,1.67,1.79,.96,.04,1.76-.71,1.79-1.67,.04-.96-.71-1.76-1.67-1.79-.96-.04-1.76,.71-1.79,1.67Z" style="fill:#BA68C8;"></path><g><g><path d="M323.63,271.57l-3.69-2.44c.64-1.05,1.99-1.36,3.01-.69,1.02,.67,1.33,2.07,.68,3.13Z" style="fill:#263238;"></path><path d="M303.19,271.97l3.57-2.71c-.72-1.02-2.1-1.24-3.08-.5-.98,.75-1.2,2.18-.49,3.2Z" style="fill:#263238;"></path><g><path d="M314.74,286.46l-6.53-2.35c-.72,1.79,.15,3.77,1.96,4.42,1.8,.65,3.85-.28,4.57-2.07Z" style="fill:#b16668;"></path><path d="M311.91,288.67c-.57,.09-1.17,.06-1.74-.15-1.37-.49-2.2-1.75-2.21-3.11,1.94,.06,3.54,1.43,3.95,3.26Z" style="fill:#f28f8f;"></path></g></g><path d="M312.5,297.61c-5.19-.07-12.01-1.24-16.36-8.13,0,0,.43,4.56,4.88,7.4,5.57,3.56,11.54,2.79,11.54,2.79l-.06-2.06Z" style="fill:#f0997a;"></path><path d="M318.86,280.65l-5.77,2.07-1.41-10.39c2.39,1.11,4.78,4.43,7.18,8.32Z" style="fill:#f0997a;"></path></g></g><g id="Chest-2"><g><path d="M341.08,367.21c-1.05,6.94-11.26,12.81-21.65,15.34-10.03,2.43-34.67,1.06-43.93-3.79,1.39-9.4,3.59-11.26,4.58-20.38,1.03-9.45-2.19-15.31-3.26-27.04-.83-9.09,1.03-20.1,4.68-24.35l10.58-3s5.37,5.65,16.19,4.48c7.99-.86,5.67-5.81,5.67-5.81l7.5,.15c6.2,2.88,15.06,12.21,18.47,20.65,3.06,7.58,2.67,15.32-4.79,22.11l-.09,9.99s4.4,5.87,6.05,11.66Z" style="fill:#f0f0f0;"></path><path d="M315.23,343.96s-4.99,5.8-14.53,4.46c-9.84-1.39-11.53-9.63-11.53-9.63,0,0-.73,10.71,11.03,12.37,10.84,1.53,15.03-7.2,15.03-7.2Z" style="fill:#e0e0e0;"></path></g></g><g id="Tablet-2"><g><g><path d="M362.79,329.8h.02l-1.28-.94v.02c-.29-.2-.71-.23-1.25-.04l-13.82,4.98c-1.18,.42-2.4,1.75-2.72,2.96l-7.29,27.79c-.17,.64-.04,1.12,.28,1.37h-.01l1.32,.98v-.02c.29,.2,.72,.24,1.26,.05l13.82-4.98c1.18-.42,2.4-1.75,2.72-2.96,1.43-5.46,5.86-22.33,7.29-27.79,.18-.68,.03-1.18-.35-1.41Z" style="fill:#455a64;"></path><path d="M346.38,335.62c-.64,.59-1.16,1.37-1.36,2.11l-7.29,27.79c-.16,.62-.06,1.09,.24,1.35l-1.24-.91h.01c-.33-.26-.45-.73-.29-1.38l7.29-27.8c.17-.68,.66-1.4,1.25-1.99l1.39,.84Z" style="fill:#455a64;"></path><path d="M337.74,365.51l7.29-27.79c.32-1.22,1.53-2.54,2.72-2.96l13.82-4.98c1.18-.42,1.88,.22,1.57,1.44-1.43,5.46-5.86,22.33-7.29,27.79-.32,1.22-1.54,2.54-2.72,2.96l-13.82,4.98c-1.18,.42-1.88-.22-1.57-1.44Z" style="fill:#263238;"></path></g><path d="M345.48,343.4l1.36-5.2c.06-.23,.29-.48,.51-.55l2.39-.85c.22-.08,.35,.04,.29,.27-.27,1.02-1.1,4.18-1.36,5.2-.06,.23-.29,.48-.51,.55l-2.39,.85c-.22,.08-.35-.04-.29-.27Z" style="fill:#455a64;"></path><path d="M347.06,339.4c.15-.55,.73-1.17,1.3-1.37,.57-.2,.92,.08,.77,.63-.15,.55-.73,1.17-1.3,1.37-.57,.2-.92-.08-.77-.63Z" style="fill:#263238;"></path><path d="M346.4,342.02c.15-.55,.73-1.17,1.3-1.37,.57-.2,.92,.08,.77,.63-.15,.55-.73,1.17-1.3,1.37-.57,.2-.92-.08-.77-.63Z" style="fill:#263238;"></path></g><g><path d="M361.54,346.85c1.3-1.84,1.17-2.08,.46-3.01-.72-.93-2.32-2.46-4.71-2.37-1.61,.06-3.24,.04-4.06,.48-.83,.44-.11,2.18,2,2.63,3.31,.71,3.3,1.61,3.3,1.61,0,0-3.05-.65-4.27-.71-1.22-.06-3.45,.54-4.84,.77-1.39,.23-1.65,2.03,.72,2.63,0,0-1.76,.3-2.55,.43-1.79,.3-2.39,1.26-.97,2.35,.34,.26,.8,.56,1.62,.6,0,0-1.91,.01-1.94,.65-.1,1.82,1.08,2.28,4.94,3.37,3.68,1.04,4.45,3.01,3.73,4.38,0,0,1.47-.87,2.78-1.79,.96-.67,1.77-1.43,1.32-2.93,0,0,2.1,.02,2.22-1.27,.12-1.3-.53-2.78-.53-2.78,0,0,1.23-.62,1.14-2.16-.09-1.54-.78-2.27-.78-2.27l.44-.59Z" style="fill:#ffbda7;"></path><path d="M350.11,348.88c.77-.12,1.49-.3,2.32-.27,.85,.07,1.55,.41,2.25,.69,1.4,.62,2.78,1.28,4.07,2.13-1.51-.36-2.93-.91-4.33-1.51-.7-.3-1.38-.65-2.06-.8-.69-.11-1.5-.11-2.25-.25Z" style="fill:#f0997a;"></path><path d="M348.21,352.26c.79-.24,1.68-.27,2.51-.1,.83,.15,1.62,.43,2.4,.73,1.53,.63,3.01,1.36,4.39,2.3-1.6-.45-3.12-1.07-4.64-1.67-1.52-.6-2.98-1.25-4.66-1.27Z" style="fill:#f0997a;"></path></g></g><g><g><path d="M295.31,355.78l-4.32-28.2s-3.12-14.97-9.55-20.4c-7.31,2.14-7.47,4.48-9.28,9.08-2.34,5.95-2.06,11.56,.33,26.6,2.03,12.76,4.4,20.82,6.34,25.47,2.4,5.75,7.49,6.15,16.33,5.56,8.84-.59,14.36-1.5,26.6-3.34,5.89-.88,8.96-2.24,13.82-3.83,2.41-.79,3.77-1.46,5.23-2.47s2.77-2.27,3.59-3.84c.15-.3,.26-.59,.49-.83,.22-.23,.48-.43,.73-.63,.48-.37,.99-.73,1.35-1.22,.38-.53,.56-1.16,.83-1.75,.12-.27,.2-.56,.36-.82,.16-.26,.36-.5,.57-.73,.53-.59,1.15-1.17,1.45-1.92,.28-.7-.15-1.21-.15-1.21,0,0,.81-.65,1.07-.89,.37-.33,.7-.71,.99-1.11,.11-.16,.23-.35,.17-.54-.03-.11-.11-.2-.2-.28-1.35-1.26-3.14-.7-4.64-.09-3.91,1.58-6.04,3.39-10.13,4.54-2.22,.62-2.78,.75-3.58,.51-1.08-.66,2.93-4.51,3.19-7.69,.13-1.58-1.33-3.49-2.56-1.66-2.57,3.82-4.84,4.84-6.78,7.04-1.94,2.19-3.76,3.53-7.91,5-4.41,1.56-24.35-.32-24.35-.32Z" style="fill:#ffbda7;"></path><path d="M295.31,355.78c-5.4-.91-9.89-.63-9.89-.63,0,0,2.45-1.87,9.61-.97l.28,1.59Z" style="fill:#f0997a;"></path><path d="M349.92,351.5c-.79,.7-1.65,1.32-2.51,1.93-.85,.61-1.73,1.2-2.58,1.8-.43,.29-.85,.62-1.3,.9-.45,.28-.91,.55-1.38,.79-.93,.5-1.88,.96-2.86,1.36l1.35-.81c.45-.26,.91-.53,1.35-.81,.44-.28,.89-.55,1.32-.84,.43-.28,.85-.61,1.28-.91,.87-.6,1.75-1.18,2.64-1.73l2.67-1.68Z" style="fill:#f0997a;"></path><path d="M348.22,355.05c-.5,.65-1.07,1.27-1.68,1.8-.61,.54-1.25,1.04-1.9,1.52-.65,.48-1.32,.94-2,1.38-.68,.44-1.39,.85-2.12,1.19,.66-.47,1.3-.96,1.95-1.44l1.94-1.44,1.94-1.44c.64-.49,1.27-1.03,1.88-1.57Z" style="fill:#f0997a;"></path></g><path d="M281.53,306.97c-5.14,1.6-8.01,3.5-10.25,7.91-2.23,4.41-1.95,6.62-2.76,16.61,10.12,1.81,15.16,1.92,23.24,.11l-.69-5.01c-.72-7.28-4.07-15.46-9.53-19.62Z" style="fill:#BA68C8;"></path></g></g></g></g></svg>
